MetropolisNew-Thin.ufo
<glyph name="exclam" format="2">
  <advance width="216"/>
  <unicode hex="0021"/>
  <outline>
    <contour>
      <point x="126" y="193" type="line"/>
      <point x="126" y="687" type="line"/>
      <point x="90" y="687" type="line"/>
      <point x="90" y="193" type="line"/>
    </contour>
    <contour>
      <point x="108" y="-12" type="curve" smooth="yes"/>
      <point x="124" y="-12"/>
      <point x="137" y="2"/>
      <point x="137" y="19" type="curve" smooth="yes"/>
      <point x="137" y="34"/>
      <point x="124" y="48"/>
      <point x="108" y="48" type="curve" smooth="yes"/>
      <point x="90" y="48"/>
      <point x="77" y="34"/>
      <point x="77" y="19" type="curve" smooth="yes"/>
      <point x="77" y="2"/>
      <point x="90" y="-12"/>
    </contour>
  </outline>
</glyph>
<glyph name="parenleft" format="2">
  <advance width="359"/>
  <unicode hex="0028"/>
  <outline>
    <contour>
      <point x="293" y="-143" type="line"/>
      <point x="176" y="-24"/>
      <point x="107" y="128"/>
      <point x="107" y="265" type="curve" smooth="yes"/>
      <point x="107" y="402"/>
      <point x="176" y="554"/>
      <point x="293" y="674" type="curve"/>
      <point x="268" y="700" type="line"/>
      <point x="144" y="572"/>
      <point x="71" y="410"/>
      <point x="71" y="265" type="curve" smooth="yes"/>
      <point x="71" y="118"/>
      <point x="144" y="-44"/>
      <point x="268" y="-170" type="curve"/>
    </contour>
  </outline>
</glyph>
<glyph name="parenright" format="2">
  <advance width="359"/>
  <unicode hex="0029"/>
  <outline>
    <contour>
      <point x="91" y="-170" type="line"/>
      <point x="215" y="-44"/>
      <point x="288" y="118"/>
      <point x="288" y="265" type="curve" smooth="yes"/>
      <point x="288" y="410"/>
      <point x="215" y="572"/>
      <point x="91" y="700" type="curve"/>
      <point x="66" y="674" type="line"/>
      <point x="183" y="554"/>
      <point x="252" y="402"/>
      <point x="252" y="265" type="curve" smooth="yes"/>
      <point x="252" y="128"/>
      <point x="183" y="-24"/>
      <point x="66" y="-143" type="curve"/>
    </contour>
  </outline>
</glyph>
<glyph name="one" format="2">
  <advance width="367"/>
  <unicode hex="0031"/>
  <outline>
    <contour>
      <point x="277" y="0" type="line"/>
      <point x="277" y="687" type="line"/>
      <point x="248" y="687" type="line"/>
      <point x="66" y="572" type="line"/>
      <point x="85" y="542" type="line"/>
      <point x="241" y="640" type="line"/>
      <point x="241" y="0" type="line"/>
    </contour>
  </outline>
</glyph>
<glyph name="nine" format="2">
  <advance width="603"/>
  <unicode hex="0039"/>
  <outline>
    <contour>
      <point x="291" y="699" type="curve" smooth="yes"/>
      <point x="171" y="699"/>
      <point x="70" y="596"/>
      <point x="70" y="473" type="curve" smooth="yes"/>
      <point x="70" y="356"/>
      <point x="167" y="258"/>
      <point x="282" y="258" type="curve" smooth="yes"/>
      <point x="401" y="258"/>
      <point x="501" y="336"/>
      <point x="501" y="429" type="curve"/>
      <point x="492" y="479" type="line"/>
      <point x="488" y="379"/>
      <point x="395" y="294"/>
      <point x="289" y="294" type="curve" smooth="yes"/>
      <point x="190" y="294"/>
      <point x="106" y="377"/>
      <point x="106" y="475" type="curve" smooth="yes"/>
      <point x="106" y="577"/>
      <point x="191" y="663"/>
      <point x="291" y="663" type="curve" smooth="yes"/>
      <point x="419" y="663"/>
      <point x="495" y="548"/>
      <point x="495" y="354" type="curve" smooth="yes"/>
      <point x="495" y="161"/>
      <point x="404" y="24"/>
      <point x="276" y="24" type="curve" smooth="yes"/>
      <point x="213" y="24"/>
      <point x="147" y="52"/>
      <point x="99" y="99" type="curve"/>
      <point x="79" y="70" type="line"/>
      <point x="133" y="18"/>
      <point x="205" y="-12"/>
      <point x="274" y="-12" type="curve" smooth="yes"/>
      <point x="424" y="-12"/>
      <point x="530" y="140"/>
      <point x="530" y="354" type="curve" smooth="yes"/>
      <point x="530" y="571"/>
      <point x="441" y="699"/>
    </contour>
  </outline>
</glyph>
<glyph name="colon" format="2">
  <advance width="212"/>
  <unicode hex="003A"/>
  <outline>
    <contour>
      <point x="107" y="437" type="curve" smooth="yes"/>
      <point x="123" y="437"/>
      <point x="136" y="451"/>
      <point x="136" y="468" type="curve" smooth="yes"/>
      <point x="136" y="483"/>
      <point x="123" y="497"/>
      <point x="107" y="497" type="curve" smooth="yes"/>
      <point x="89" y="497"/>
      <point x="76" y="483"/>
      <point x="76" y="468" type="curve" smooth="yes"/>
      <point x="76" y="451"/>
      <point x="89" y="437"/>
    </contour>
    <contour>
      <point x="107" y="-12" type="curve" smooth="yes"/>
      <point x="123" y="-12"/>
      <point x="136" y="2"/>
      <point x="136" y="19" type="curve" smooth="yes"/>
      <point x="136" y="34"/>
      <point x="123" y="48"/>
      <point x="107" y="48" type="curve" smooth="yes"/>
      <point x="89" y="48"/>
      <point x="76" y="34"/>
      <point x="76" y="19" type="curve" smooth="yes"/>
      <point x="76" y="2"/>
      <point x="89" y="-12"/>
    </contour>
  </outline>
</glyph>
<glyph name="A" format="2">
  <advance width="794"/>
  <unicode hex="0041"/>
  <anchor x="720" y="0" name="bottom"/>
  <anchor x="397" y="687" name="top"/>
  <outline>
    <contour>
      <point x="377" y="687" type="line"/>
      <point x="680" y="0" type="line"/>
      <point x="720" y="0" type="line"/>
      <point x="417" y="687" type="line"/>
    </contour>
    <contour>
      <point x="178" y="175" type="line"/>
      <point x="617" y="175" type="line"/>
      <point x="617" y="211" type="line"/>
      <point x="178" y="211" type="line"/>
    </contour>
    <contour>
      <point x="74" y="0" type="line"/>
      <point x="114" y="0" type="line"/>
      <point x="417" y="687" type="line"/>
      <point x="377" y="687" type="line"/>
    </contour>
  </outline>
  <guideline angle="90" x="397" y="0"/>
</glyph>
<glyph name="N" format="2">
  <advance width="736"/>
  <unicode hex="004E"/>
  <anchor x="368" y="0" name="bottom"/>
  <anchor x="368" y="687" name="top"/>
  <outline>
    <contour>
      <point x="134" y="0" type="line"/>
      <point x="134" y="631" type="line"/>
      <point x="602" y="0" type="line"/>
      <point x="638" y="0" type="line"/>
      <point x="638" y="687" type="line"/>
      <point x="602" y="687" type="line"/>
      <point x="602" y="56" type="line"/>
      <point x="134" y="687" type="line"/>
      <point x="98" y="687" type="line"/>
      <point x="98" y="0" type="line"/>
    </contour>
  </outline>
</glyph>
<glyph name="R" format="2">
  <advance width="639"/>
  <unicode hex="0052"/>
  <outline>
    <contour>
      <point x="79" y="0" type="line"/>
      <point x="115" y="0" type="line"/>
      <point x="115" y="267" type="line"/>
      <point x="351" y="267" type="line"/>
      <point x="538" y="0" type="line"/>
      <point x="582" y="0" type="line"/>
      <point x="394" y="268" type="line"/>
      <point x="511" y="278"/>
      <point x="606" y="354"/>
      <point x="606" y="477" type="curve" smooth="yes"/>
      <point x="606" y="612"/>
      <point x="494" y="687"/>
      <point x="368" y="687" type="curve" smooth="yes"/>
      <point x="79" y="687" type="line"/>
    </contour>
    <contour>
      <point x="115" y="303" type="line"/>
      <point x="115" y="651" type="line"/>
      <point x="361" y="651" type="line" smooth="yes"/>
      <point x="466" y="651"/>
      <point x="570" y="593"/>
      <point x="570" y="477" type="curve" smooth="yes"/>
      <point x="570" y="361"/>
      <point x="466" y="303"/>
      <point x="361" y="303" type="curve" smooth="yes"/>
    </contour>
  </outline>
</glyph>
<glyph name="U" format="2">
  <advance width="714"/>
  <unicode hex="0055"/>
  <anchor x="357" y="-12" name="bottom"/>
  <anchor x="357" y="687" name="top"/>
  <outline>
    <contour>
      <point x="357" y="-12" type="curve" smooth="yes"/>
      <point x="513" y="-12"/>
      <point x="623" y="103"/>
      <point x="623" y="265" type="curve" smooth="yes"/>
      <point x="623" y="687" type="line"/>
      <point x="587" y="687" type="line"/>
      <point x="587" y="265" type="line" smooth="yes"/>
      <point x="587" y="124"/>
      <point x="492" y="24"/>
      <point x="357" y="24" type="curve" smooth="yes"/>
      <point x="222" y="24"/>
      <point x="127" y="124"/>
      <point x="127" y="265" type="curve" smooth="yes"/>
      <point x="127" y="687" type="line"/>
      <point x="91" y="687" type="line"/>
      <point x="91" y="265" type="line" smooth="yes"/>
      <point x="91" y="103"/>
      <point x="201" y="-12"/>
    </contour>
  </outline>
</glyph>
<glyph name="Y" format="2">
  <advance width="742"/>
  <unicode hex="0059"/>
  <anchor x="371" y="687" name="top"/>
  <outline>
    <contour>
      <point x="389" y="0" type="line"/>
      <point x="389" y="279" type="line"/>
      <point x="669" y="687" type="line"/>
      <point x="623" y="687" type="line"/>
      <point x="371" y="320" type="line"/>
      <point x="119" y="687" type="line"/>
      <point x="73" y="687" type="line"/>
      <point x="353" y="279" type="line"/>
      <point x="353" y="0" type="line"/>
    </contour>
  </outline>
</glyph>
<glyph name="r" format="2">
  <advance width="349"/>
  <unicode hex="0072"/>
  <anchor x="180" y="0" name="bottom"/>
  <anchor x="180" y="517" name="top"/>
  <outline>
    <contour>
      <point x="104" y="289" type="line"/>
      <point x="104" y="408"/>
      <point x="187" y="493"/>
      <point x="304" y="493" type="curve"/>
      <point x="304" y="529" type="line"/>
      <point x="192" y="529"/>
      <point x="98" y="451"/>
      <point x="98" y="359" type="curve"/>
    </contour>
    <contour>
      <point x="104" y="0" type="line"/>
      <point x="104" y="517" type="line"/>
      <point x="68" y="517" type="line"/>
      <point x="68" y="0" type="line"/>
    </contour>
  </outline>
</glyph>
<glyph name="u" format="2">
  <advance width="529"/>
  <unicode hex="0075"/>
  <anchor x="461" y="0" name="bottom"/>
  <anchor x="256" y="517" name="top"/>
  <outline>
    <contour>
      <point x="255" y="-12" type="curve" smooth="yes"/>
      <point x="362" y="-12"/>
      <point x="438" y="58"/>
      <point x="438" y="157" type="curve"/>
      <point x="425" y="187" type="line"/>
      <point x="425" y="92"/>
      <point x="357" y="24"/>
      <point x="260" y="24" type="curve" smooth="yes"/>
      <point x="165" y="24"/>
      <point x="98" y="90"/>
      <point x="98" y="183" type="curve" smooth="yes"/>
      <point x="98" y="517" type="line"/>
      <point x="62" y="517" type="line"/>
      <point x="62" y="178" type="line" smooth="yes"/>
      <point x="62" y="67"/>
      <point x="142" y="-12"/>
    </contour>
    <contour>
      <point x="461" y="0" type="line"/>
      <point x="461" y="517" type="line"/>
      <point x="425" y="517" type="line"/>
      <point x="425" y="0" type="line"/>
    </contour>
  </outline>
</glyph>
<glyph name="v" format="2">
  <advance width="584"/>
  <unicode hex="0076"/>
  <outline>
    <contour>
      <point x="303" y="0" type="line"/>
      <point x="540" y="517" type="line"/>
      <point x="501" y="517" type="line"/>
      <point x="292" y="61" type="line"/>
      <point x="83" y="517" type="line"/>
      <point x="44" y="517" type="line"/>
      <point x="281" y="0" type="line"/>
    </contour>
  </outline>
</glyph>
<glyph name="x" format="2">
  <advance width="531"/>
  <unicode hex="0078"/>
  <outline>
    <contour>
      <point x="487" y="0" type="line"/>
      <point x="96" y="517" type="line"/>
      <point x="52" y="517" type="line"/>
      <point x="443" y="0" type="line"/>
    </contour>
    <contour>
      <point x="88" y="0" type="line"/>
      <point x="479" y="517" type="line"/>
      <point x="435" y="517" type="line"/>
      <point x="44" y="0" type="line"/>
    </contour>
  </outline>
</glyph>
<glyph name="cent" format="2">
  <advance width="618"/>
  <unicode hex="00A2"/>
  <anchor x="344" y="0" name="bottom"/>
  <anchor x="334" y="517" name="top"/>
  <outline>
    <contour>
      <point x="353" y="-74" type="line"/>
      <point x="353" y="589" type="line"/>
      <point x="317" y="589" type="line"/>
      <point x="317" y="-74" type="line"/>
    </contour>
    <contour>
      <point x="352" y="-12" type="curve" smooth="yes"/>
      <point x="420" y="-12"/>
      <point x="483" y="17"/>
      <point x="529" y="64" type="curve"/>
      <point x="504" y="89" type="line"/>
      <point x="464" y="49"/>
      <point x="410" y="24"/>
      <point x="352" y="24" type="curve" smooth="yes"/>
      <point x="222" y="24"/>
      <point x="130" y="121"/>
      <point x="130" y="259" type="curve" smooth="yes"/>
      <point x="130" y="396"/>
      <point x="222" y="493"/>
      <point x="352" y="493" type="curve" smooth="yes"/>
      <point x="410" y="493"/>
      <point x="464" y="468"/>
      <point x="503" y="428" type="curve"/>
      <point x="529" y="453" type="line"/>
      <point x="483" y="500"/>
      <point x="420" y="529"/>
      <point x="352" y="529" type="curve" smooth="yes"/>
      <point x="201" y="529"/>
      <point x="94" y="417"/>
      <point x="94" y="259" type="curve" smooth="yes"/>
      <point x="94" y="100"/>
      <point x="201" y="-12"/>
    </contour>
  </outline>
</glyph>
<glyph name="currency" format="2">
  <advance width="700"/>
  <unicode hex="00A4"/>
  <outline>
    <contour>
      <point x="180" y="511" type="line"/>
      <point x="60" y="631" type="line"/>
      <point x="37" y="607" type="line"/>
      <point x="156" y="487" type="line"/>
    </contour>
    <contour>
      <point x="180" y="124" type="line"/>
      <point x="156" y="148" type="line"/>
      <point x="37" y="28" type="line"/>
      <point x="60" y="4" type="line"/>
    </contour>
    <contour>
      <point x="663" y="28" type="line"/>
      <point x="543" y="148" type="line"/>
      <point x="520" y="124" type="line"/>
      <point x="640" y="4" type="line"/>
    </contour>
    <contour>
      <point x="663" y="607" type="line"/>
      <point x="640" y="631" type="line"/>
      <point x="520" y="511" type="line"/>
      <point x="543" y="487" type="line"/>
    </contour>
    <contour>
      <point x="350" y="48" type="curve" smooth="yes"/>
      <point x="505" y="48"/>
      <point x="631" y="169"/>
      <point x="631" y="317" type="curve" smooth="yes"/>
      <point x="631" y="466"/>
      <point x="505" y="588"/>
      <point x="350" y="588" type="curve" smooth="yes"/>
      <point x="197" y="588"/>
      <point x="72" y="466"/>
      <point x="72" y="317" type="curve" smooth="yes"/>
      <point x="72" y="169"/>
      <point x="197" y="48"/>
    </contour>
    <contour>
      <point x="350" y="80" type="curve" smooth="yes"/>
      <point x="215" y="80"/>
      <point x="104" y="187"/>
      <point x="104" y="317" type="curve" smooth="yes"/>
      <point x="104" y="448"/>
      <point x="215" y="555"/>
      <point x="350" y="555" type="curve" smooth="yes"/>
      <point x="487" y="555"/>
      <point x="599" y="448"/>
      <point x="599" y="317" type="curve" smooth="yes"/>
      <point x="599" y="187"/>
      <point x="487" y="80"/>
    </contour>
  </outline>
</glyph>
<glyph name="brokenbar" format="2">
  <advance width="231"/>
  <unicode hex="00A6"/>
  <outline>
    <contour>
      <point x="133" y="392" type="line"/>
      <point x="133" y="742" type="line"/>
      <point x="98" y="742" type="line"/>
      <point x="98" y="392" type="line"/>
    </contour>
    <contour>
      <point x="133" y="-194" type="line"/>
      <point x="133" y="156" type="line"/>
      <point x="98" y="156" type="line"/>
      <point x="98" y="-194" type="line"/>
    </contour>
  </outline>
</glyph>
<glyph name="section" format="2">
  <advance width="477"/>
  <unicode hex="00A7"/>
  <anchor x="247" y="0" name="bottom"/>
  <anchor x="251" y="517" name="top"/>
  <outline>
    <contour>
      <point x="384" y="195" type="line"/>
      <point x="417" y="220"/>
      <point x="437" y="254"/>
      <point x="437" y="291" type="curve" smooth="yes"/>
      <point x="437" y="364"/>
      <point x="389" y="408"/>
      <point x="269" y="446" type="curve" smooth="yes"/>
      <point x="159" y="481"/>
      <point x="115" y="516"/>
      <point x="115" y="568" type="curve" smooth="yes"/>
      <point x="115" y="618"/>
      <point x="177" y="660"/>
      <point x="250" y="660" type="curve" smooth="yes"/>
      <point x="303" y="660"/>
      <point x="363" y="641"/>
      <point x="413" y="610" type="curve"/>
      <point x="435" y="638" type="line"/>
      <point x="379" y="674"/>
      <point x="311" y="696"/>
      <point x="250" y="696" type="curve" smooth="yes"/>
      <point x="157" y="696"/>
      <point x="79" y="636"/>
      <point x="79" y="564" type="curve" smooth="yes"/>
      <point x="79" y="495"/>
      <point x="128" y="452"/>
      <point x="251" y="414" type="curve" smooth="yes"/>
      <point x="358" y="381"/>
      <point x="401" y="345"/>
      <point x="401" y="287" type="curve" smooth="yes"/>
      <point x="401" y="261"/>
      <point x="385" y="237"/>
      <point x="360" y="220" type="curve"/>
    </contour>
    <contour>
      <point x="258" y="-12" type="curve" smooth="yes"/>
      <point x="355" y="-12"/>
      <point x="437" y="50"/>
      <point x="437" y="124" type="curve" smooth="yes"/>
      <point x="437" y="197"/>
      <point x="389" y="241"/>
      <point x="269" y="279" type="curve" smooth="yes"/>
      <point x="159" y="314"/>
      <point x="115" y="349"/>
      <point x="115" y="401" type="curve" smooth="yes"/>
      <point x="115" y="429"/>
      <point x="134" y="455"/>
      <point x="164" y="472" type="curve"/>
      <point x="140" y="497" type="line"/>
      <point x="103" y="473"/>
      <point x="79" y="437"/>
      <point x="79" y="397" type="curve" smooth="yes"/>
      <point x="79" y="328"/>
      <point x="128" y="285"/>
      <point x="251" y="247" type="curve" smooth="yes"/>
      <point x="358" y="214"/>
      <point x="401" y="178"/>
      <point x="401" y="120" type="curve" smooth="yes"/>
      <point x="401" y="68"/>
      <point x="336" y="24"/>
      <point x="258" y="24" type="curve" smooth="yes"/>
      <point x="197" y="24"/>
      <point x="126" y="50"/>
      <point x="66" y="93" type="curve"/>
      <point x="44" y="65" type="line"/>
      <point x="104" y="17"/>
      <point x="184" y="-12"/>
    </contour>
  </outline>
</glyph>
<glyph name="ordfeminine" format="2">
  <advance width="317"/>
  <unicode hex="00AA"/>
  <anchor x="287" y="377" name="bottom"/>
  <anchor x="172" y="687" name="top"/>
  <outline>
    <contour>
      <point x="287" y="377" type="line"/>
      <point x="287" y="566" type="line" smooth="yes"/>
      <point x="287" y="641"/>
      <point x="246" y="694"/>
      <point x="161" y="694" type="curve" smooth="yes"/>
      <point x="131" y="694"/>
      <point x="94" y="687"/>
      <point x="50" y="664" type="curve"/>
      <point x="68" y="628" type="line"/>
      <point x="96" y="642"/>
      <point x="127" y="656"/>
      <point x="158" y="656" type="curve" smooth="yes"/>
      <point x="226" y="656"/>
      <point x="242" y="608"/>
      <point x="242" y="566" type="curve" smooth="yes"/>
      <point x="242" y="377" type="line"/>
    </contour>
    <contour>
      <point x="133" y="370" type="curve" smooth="yes"/>
      <point x="182" y="370"/>
      <point x="240" y="398"/>
      <point x="253" y="451" type="curve"/>
      <point x="242" y="474" type="line"/>
      <point x="230" y="430"/>
      <point x="182" y="409"/>
      <point x="141" y="409" type="curve" smooth="yes"/>
      <point x="97" y="409"/>
      <point x="64" y="432"/>
      <point x="64" y="471" type="curve" smooth="yes"/>
      <point x="64" y="508"/>
      <point x="103" y="534"/>
      <point x="149" y="534" type="curve" smooth="yes"/>
      <point x="191" y="534"/>
      <point x="229" y="527"/>
      <point x="262" y="515" type="curve"/>
      <point x="262" y="547" type="line"/>
      <point x="226" y="562"/>
      <point x="182" y="572"/>
      <point x="142" y="572" type="curve" smooth="yes"/>
      <point x="75" y="572"/>
      <point x="20" y="531"/>
      <point x="20" y="469" type="curve" smooth="yes"/>
      <point x="20" y="408"/>
      <point x="68" y="370"/>
    </contour>
  </outline>
</glyph>
<glyph name="logicalnot" format="2">
  <advance width="618"/>
  <unicode hex="00AC"/>
  <outline>
    <contour>
      <point x="100" y="366" type="line"/>
      <point x="100" y="334" type="line"/>
      <point x="485" y="334" type="line"/>
      <point x="485" y="153" type="line"/>
      <point x="518" y="153" type="line"/>
      <point x="518" y="366" type="line"/>
    </contour>
  </outline>
</glyph>
<glyph name="macron" format="2">
  <advance width="442"/>
  <unicode hex="00AF"/>
  <anchor x="221" y="517" name="_top"/>
  <anchor x="221" y="704" name="top"/>
  <outline>
    <contour>
      <point x="376" y="603" type="line"/>
      <point x="376" y="639" type="line"/>
      <point x="66" y="639" type="line"/>
      <point x="66" y="603" type="line"/>
    </contour>
  </outline>
</glyph>
<glyph name="plusminus" format="2">
  <advance width="622"/>
  <unicode hex="00B1"/>
  <outline>
    <contour>
      <point x="520" y="0" type="line"/>
      <point x="520" y="32" type="line"/>
      <point x="102" y="32" type="line"/>
      <point x="102" y="0" type="line"/>
    </contour>
    <contour>
      <point x="328" y="157" type="line"/>
      <point x="328" y="563" type="line"/>
      <point x="295" y="563" type="line"/>
      <point x="295" y="157" type="line"/>
    </contour>
    <contour>
      <point x="520" y="344" type="line"/>
      <point x="520" y="376" type="line"/>
      <point x="102" y="376" type="line"/>
      <point x="102" y="344" type="line"/>
    </contour>
  </outline>
</glyph>
<glyph name="two.superior" format="2">
  <advance width="348"/>
  <unicode hex="00B2"/>
  <outline>
    <contour>
      <point x="314" y="275" type="line"/>
      <point x="314" y="317" type="line"/>
      <point x="102" y="317" type="line"/>
      <point x="213" y="414" type="line" smooth="yes"/>
      <point x="283" y="473"/>
      <point x="310" y="518"/>
      <point x="310" y="573" type="curve" smooth="yes"/>
      <point x="310" y="646"/>
      <point x="251" y="694"/>
      <point x="179" y="694" type="curve" smooth="yes"/>
      <point x="116" y="694"/>
      <point x="69" y="665"/>
      <point x="35" y="615" type="curve"/>
      <point x="67" y="589" type="line"/>
      <point x="95" y="629"/>
      <point x="130" y="654"/>
      <point x="178" y="654" type="curve" smooth="yes"/>
      <point x="223" y="654"/>
      <point x="265" y="623"/>
      <point x="265" y="573" type="curve" smooth="yes"/>
      <point x="265" y="532"/>
      <point x="241" y="492"/>
      <point x="183" y="442" type="curve" smooth="yes"/>
      <point x="31" y="313" type="line"/>
      <point x="31" y="275" type="line"/>
    </contour>
  </outline>
</glyph>
<glyph name="three.superior" format="2">
  <advance width="354"/>
  <unicode hex="00B3"/>
  <outline>
    <contour>
      <point x="178" y="268" type="curve" smooth="yes"/>
      <point x="263" y="268"/>
      <point x="321" y="318"/>
      <point x="321" y="387" type="curve" smooth="yes"/>
      <point x="321" y="445"/>
      <point x="276" y="477"/>
      <point x="233" y="486" type="curve"/>
      <point x="275" y="499"/>
      <point x="312" y="530"/>
      <point x="312" y="583" type="curve" smooth="yes"/>
      <point x="312" y="649"/>
      <point x="254" y="694"/>
      <point x="176" y="694" type="curve" smooth="yes"/>
      <point x="113" y="694"/>
      <point x="69" y="664"/>
      <point x="36" y="622" type="curve"/>
      <point x="67" y="595" type="line"/>
      <point x="96" y="631"/>
      <point x="128" y="654"/>
      <point x="174" y="654" type="curve" smooth="yes"/>
      <point x="227" y="654"/>
      <point x="266" y="622"/>
      <point x="266" y="577" type="curve" smooth="yes"/>
      <point x="266" y="531"/>
      <point x="225" y="503"/>
      <point x="169" y="504" type="curve"/>
      <point x="125" y="504" type="line"/>
      <point x="125" y="463" type="line"/>
      <point x="168" y="463" type="line" smooth="yes"/>
      <point x="234" y="463"/>
      <point x="275" y="438"/>
      <point x="275" y="389" type="curve" smooth="yes"/>
      <point x="275" y="341"/>
      <point x="236" y="308"/>
      <point x="178" y="308" type="curve" smooth="yes"/>
      <point x="128" y="308"/>
      <point x="88" y="332"/>
      <point x="61" y="368" type="curve"/>
      <point x="29" y="340" type="line"/>
      <point x="60" y="299"/>
      <point x="111" y="268"/>
    </contour>
  </outline>
</glyph>
<glyph name="acute" format="2">
  <advance width="259"/>
  <unicode hex="00B4"/>
  <anchor x="72" y="517" name="_top"/>
  <anchor x="72" y="704" name="top"/>
  <outline>
    <contour>
      <point x="94" y="576" type="line"/>
      <point x="212" y="709" type="line"/>
      <point x="171" y="718" type="line"/>
      <point x="46" y="576" type="line"/>
    </contour>
  </outline>
</glyph>
<glyph name="one.superior" format="2">
  <advance width="215"/>
  <unicode hex="00B9"/>
  <outline>
    <contour>
      <point x="167" y="275" type="line"/>
      <point x="167" y="687" type="line"/>
      <point x="132" y="687" type="line"/>
      <point x="29" y="618" type="line"/>
      <point x="49" y="584" type="line"/>
      <point x="123" y="632" type="line"/>
      <point x="123" y="275" type="line"/>
    </contour>
  </outline>
</glyph>
<glyph name="ordmasculine" format="2">
  <advance width="362"/>
  <unicode hex="00BA"/>
  <anchor x="181" y="687" name="top"/>
  <outline>
    <contour>
      <point x="181" y="370" type="curve" smooth="yes"/>
      <point x="269" y="370"/>
      <point x="341" y="443"/>
      <point x="341" y="532" type="curve" smooth="yes"/>
      <point x="341" y="622"/>
      <point x="269" y="694"/>
      <point x="181" y="694" type="curve" smooth="yes"/>
      <point x="93" y="694"/>
      <point x="21" y="622"/>
      <point x="21" y="532" type="curve" smooth="yes"/>
      <point x="21" y="443"/>
      <point x="93" y="370"/>
    </contour>
    <contour>
      <point x="181" y="410" type="curve" smooth="yes"/>
      <point x="119" y="410"/>
      <point x="68" y="465"/>
      <point x="68" y="532" type="curve" smooth="yes"/>
      <point x="68" y="600"/>
      <point x="119" y="654"/>
      <point x="181" y="654" type="curve" smooth="yes"/>
      <point x="243" y="654"/>
      <point x="294" y="600"/>
      <point x="294" y="532" type="curve" smooth="yes"/>
      <point x="294" y="465"/>
      <point x="243" y="410"/>
    </contour>
  </outline>
</glyph>
<glyph name="Eth" format="2">
  <advance width="828"/>
  <unicode hex="00D0"/>
  <outline>
    <contour>
      <point x="397" y="0" type="line" smooth="yes"/>
      <point x="603" y="0"/>
      <point x="749" y="143"/>
      <point x="749" y="344" type="curve" smooth="yes"/>
      <point x="749" y="545"/>
      <point x="603" y="687"/>
      <point x="397" y="687" type="curve" smooth="yes"/>
      <point x="162" y="687" type="line"/>
      <point x="162" y="0" type="line"/>
    </contour>
    <contour>
      <point x="198" y="651" type="line"/>
      <point x="397" y="651" type="line" smooth="yes"/>
      <point x="582" y="651"/>
      <point x="713" y="524"/>
      <point x="713" y="344" type="curve" smooth="yes"/>
      <point x="713" y="164"/>
      <point x="582" y="36"/>
      <point x="397" y="36" type="curve" smooth="yes"/>
      <point x="198" y="36" type="line"/>
    </contour>
    <contour>
      <point x="422" y="332" type="line"/>
      <point x="423" y="368" type="line"/>
      <point x="74" y="368" type="line"/>
      <point x="74" y="332" type="line"/>
    </contour>
  </outline>
</glyph>
<glyph name="Thorn" format="2">
  <advance width="702"/>
  <unicode hex="00DE"/>
  <outline>
    <contour>
      <point x="134" y="0" type="line"/>
      <point x="134" y="136" type="line"/>
      <point x="387" y="136" type="line" smooth="yes"/>
      <point x="526" y="136"/>
      <point x="625" y="223"/>
      <point x="625" y="346" type="curve" smooth="yes"/>
      <point x="625" y="469"/>
      <point x="526" y="556"/>
      <point x="387" y="556" type="curve" smooth="yes"/>
      <point x="134" y="556" type="line"/>
      <point x="134" y="687" type="line"/>
      <point x="98" y="687" type="line"/>
      <point x="98" y="0" type="line"/>
    </contour>
    <contour>
      <point x="134" y="520" type="line"/>
      <point x="380" y="520" type="line" smooth="yes"/>
      <point x="502" y="520"/>
      <point x="589" y="448"/>
      <point x="589" y="346" type="curve" smooth="yes"/>
      <point x="589" y="244"/>
      <point x="502" y="172"/>
      <point x="380" y="172" type="curve" smooth="yes"/>
      <point x="134" y="172" type="line"/>
    </contour>
  </outline>
</glyph>
<glyph name="kgreenlandic" format="2">
  <advance width="523"/>
  <unicode hex="0138"/>
  <anchor x="248" y="0" name="bottom"/>
  <outline>
    <contour>
      <point x="104" y="0" type="line"/>
      <point x="104" y="134" type="line"/>
      <point x="222" y="255" type="line"/>
      <point x="421" y="0" type="line"/>
      <point x="467" y="0" type="line"/>
      <point x="247" y="280" type="line"/>
      <point x="479" y="517" type="line"/>
      <point x="429" y="517" type="line"/>
      <point x="104" y="186" type="line"/>
      <point x="104" y="517" type="line"/>
      <point x="68" y="517" type="line"/>
      <point x="68" y="0" type="line"/>
    </contour>
  </outline>
</glyph>
<glyph name="lcaron" format="2">
  <advance width="172"/>
  <unicode hex="013E"/>
  <anchor x="86" y="0" name="bottom"/>
  <anchor x="86" y="699" name="top"/>
  <outline>
    <contour>
      <point x="104" y="0" type="line"/>
      <point x="104" y="699" type="line"/>
      <point x="68" y="699" type="line"/>
      <point x="68" y="0" type="line"/>
    </contour>
    <contour>
      <point x="189" y="528" type="line"/>
      <point x="228" y="579"/>
      <point x="247" y="622"/>
      <point x="247" y="657" type="curve" smooth="yes"/>
      <point x="247" y="684"/>
      <point x="234" y="699"/>
      <point x="215" y="699" type="curve" smooth="yes"/>
      <point x="197" y="699"/>
      <point x="184" y="686"/>
      <point x="184" y="669" type="curve" smooth="yes"/>
      <point x="184" y="652"/>
      <point x="196" y="639"/>
      <point x="215" y="639" type="curve"/>
      <point x="208" y="611"/>
      <point x="189" y="577"/>
      <point x="163" y="547" type="curve"/>
    </contour>
  </outline>
</glyph>
<glyph name="lslash" format="2">
  <advance width="287"/>
  <unicode hex="0142"/>
  <anchor x="143" y="0" name="bottom"/>
  <anchor x="143" y="699" name="top"/>
  <outline>
    <contour>
      <point x="241" y="349" type="line"/>
      <point x="241" y="390" type="line"/>
      <point x="46" y="290" type="line"/>
      <point x="46" y="249" type="line"/>
    </contour>
    <contour>
      <point x="161" y="0" type="line"/>
      <point x="161" y="699" type="line"/>
      <point x="125" y="699" type="line"/>
      <point x="125" y="0" type="line"/>
    </contour>
  </outline>
</glyph>
<glyph name="eng" format="2">
  <advance width="529"/>
  <unicode hex="014B"/>
  <anchor x="268" y="0" name="bottom"/>
  <anchor x="448" y="517" name="top"/>
  <outline>
    <component base="n"/>
    <contour>
      <point x="360" y="-178" type="curve" smooth="yes"/>
      <point x="423" y="-178"/>
      <point x="467" y="-127"/>
      <point x="467" y="-56" type="curve" smooth="yes"/>
      <point x="467" y="117" type="line"/>
      <point x="431" y="117" type="line"/>
      <point x="431" y="-56" type="line" smooth="yes"/>
      <point x="431" y="-106"/>
      <point x="401" y="-142"/>
      <point x="358" y="-142" type="curve" smooth="yes"/>
      <point x="334" y="-142"/>
      <point x="304" y="-136"/>
      <point x="286" y="-128" type="curve"/>
      <point x="279" y="-162" type="line"/>
      <point x="300" y="-171"/>
      <point x="333" y="-178"/>
    </contour>
  </outline>
</glyph>
<glyph name="Schwa" format="2">
  <advance width="823"/>
  <unicode hex="018F"/>
  <anchor x="400" y="703" name="bottom"/>
  <anchor x="406" y="-0" name="top"/>
  <outline>
    <contour>
      <point x="408" y="703" type="curve" smooth="yes"/>
      <point x="295" y="703"/>
      <point x="176" y="658"/>
      <point x="119" y="597" type="curve"/>
      <point x="148" y="567" type="line"/>
      <point x="208" y="632"/>
      <point x="307" y="663"/>
      <point x="408" y="663" type="curve" smooth="yes"/>
      <point x="567" y="663"/>
      <point x="707" y="515"/>
      <point x="707" y="342" type="curve" smooth="yes"/>
      <point x="707" y="166"/>
      <point x="574" y="24"/>
      <point x="407" y="24" type="curve" smooth="yes"/>
      <point x="237" y="24"/>
      <point x="117" y="147"/>
      <point x="117" y="337" type="curve"/>
      <point x="119" y="323" type="line"/>
      <point x="724" y="323" type="line"/>
      <point x="724" y="362" type="line"/>
      <point x="79" y="362" type="line"/>
      <point x="79" y="136"/>
      <point x="213" y="-16"/>
      <point x="406" y="-16" type="curve" smooth="yes"/>
      <point x="596" y="-16"/>
      <point x="744" y="142"/>
      <point x="744" y="342" type="curve" smooth="yes"/>
      <point x="744" y="535"/>
      <point x="592" y="703"/>
    </contour>
  </outline>
</glyph>
<glyph name="Ohorn" format="2">
  <advance width="807"/>
  <unicode hex="01A0"/>
  <outline>
    <contour>
      <point x="404" y="24" type="curve" smooth="yes"/>
      <point x="228" y="24"/>
      <point x="88" y="169"/>
      <point x="88" y="344" type="curve" smooth="yes"/>
      <point x="88" y="518"/>
      <point x="229" y="663"/>
      <point x="404" y="663" type="curve" smooth="yes"/>
      <point x="579" y="663"/>
      <point x="719" y="518"/>
      <point x="719" y="344" type="curve" smooth="yes"/>
      <point x="719" y="170"/>
      <point x="579" y="24"/>
    </contour>
    <contour>
      <point x="404" y="699" type="curve" smooth="yes"/>
      <point x="209" y="699"/>
      <point x="52" y="538"/>
      <point x="52" y="344" type="curve" smooth="yes"/>
      <point x="52" y="150"/>
      <point x="209" y="-12"/>
      <point x="404" y="-12" type="curve" smooth="yes"/>
      <point x="599" y="-12"/>
      <point x="755" y="150"/>
      <point x="755" y="344" type="curve" smooth="yes"/>
      <point x="755" y="479"/>
      <point x="677" y="604"/>
      <point x="555" y="663" type="curve"/>
      <point x="649" y="663"/>
      <point x="709" y="713"/>
      <point x="709" y="808" type="curve"/>
      <point x="674" y="808" type="line"/>
      <point x="674" y="743"/>
      <point x="639" y="687"/>
      <point x="569" y="687" type="curve" smooth="yes"/>
      <point x="493" y="687" type="line" smooth="yes"/>
      <point x="474" y="687"/>
      <point x="436" y="699"/>
    </contour>
  </outline>
</glyph>
<glyph name="ohorn" format="2">
  <advance width="631"/>
  <unicode hex="01A1"/>
  <outline>
    <contour>
      <point x="316" y="24" type="curve" smooth="yes"/>
      <point x="187" y="24"/>
      <point x="84" y="131"/>
      <point x="84" y="259" type="curve" smooth="yes"/>
      <point x="84" y="386"/>
      <point x="188" y="493"/>
      <point x="316" y="493" type="curve" smooth="yes"/>
      <point x="444" y="493"/>
      <point x="547" y="386"/>
      <point x="547" y="259" type="curve" smooth="yes"/>
      <point x="547" y="131"/>
      <point x="445" y="24"/>
    </contour>
    <contour>
      <point x="316" y="529" type="curve" smooth="yes"/>
      <point x="168" y="529"/>
      <point x="48" y="406"/>
      <point x="48" y="259" type="curve" smooth="yes"/>
      <point x="48" y="111"/>
      <point x="167" y="-12"/>
      <point x="316" y="-12" type="curve" smooth="yes"/>
      <point x="464" y="-12"/>
      <point x="583" y="112"/>
      <point x="583" y="259" type="curve" smooth="yes"/>
      <point x="583" y="356"/>
      <point x="529" y="446"/>
      <point x="445" y="494" type="curve"/>
      <point x="521" y="503"/>
      <point x="564" y="564"/>
      <point x="564" y="638" type="curve"/>
      <point x="528" y="638" type="line"/>
      <point x="528" y="572"/>
      <point x="495" y="517"/>
      <point x="424" y="517" type="curve" smooth="yes"/>
      <point x="393" y="517" type="line" smooth="yes"/>
      <point x="381" y="517"/>
      <point x="345" y="529"/>
    </contour>
  </outline>
</glyph>
<glyph name="Uhorn" format="2">
  <advance width="704"/>
  <unicode hex="01AF"/>
  <outline>
    <contour>
      <point x="86" y="265" type="line" smooth="yes"/>
      <point x="86" y="106"/>
      <point x="190" y="-12"/>
      <point x="352" y="-12" type="curve" smooth="yes"/>
      <point x="514" y="-12"/>
      <point x="618" y="106"/>
      <point x="618" y="265" type="curve" smooth="yes"/>
      <point x="618" y="667" type="line"/>
      <point x="685" y="680"/>
      <point x="722" y="743"/>
      <point x="722" y="808" type="curve"/>
      <point x="686" y="808" type="line"/>
      <point x="686" y="746"/>
      <point x="654" y="687"/>
      <point x="589" y="687" type="curve" smooth="yes"/>
      <point x="582" y="687" type="line"/>
      <point x="582" y="265" type="line" smooth="yes"/>
      <point x="582" y="128"/>
      <point x="492" y="24"/>
      <point x="352" y="24" type="curve" smooth="yes"/>
      <point x="212" y="24"/>
      <point x="122" y="128"/>
      <point x="122" y="265" type="curve" smooth="yes"/>
      <point x="122" y="687" type="line"/>
      <point x="86" y="687" type="line"/>
    </contour>
  </outline>
</glyph>
<glyph name="uhorn" format="2">
  <advance width="552"/>
  <unicode hex="01B0"/>
  <outline>
    <contour>
      <point x="475" y="497" type="line"/>
      <point x="542" y="510"/>
      <point x="579" y="573"/>
      <point x="579" y="638" type="curve"/>
      <point x="544" y="638" type="line"/>
      <point x="544" y="578"/>
      <point x="513" y="517"/>
      <point x="453" y="517" type="curve" smooth="yes"/>
      <point x="439" y="517" type="line"/>
      <point x="439" y="187" type="line" smooth="yes"/>
      <point x="439" y="90"/>
      <point x="370" y="24"/>
      <point x="274" y="24" type="curve" smooth="yes"/>
      <point x="179" y="24"/>
      <point x="112" y="87"/>
      <point x="112" y="183" type="curve" smooth="yes"/>
      <point x="112" y="517" type="line"/>
      <point x="76" y="517" type="line"/>
      <point x="76" y="178" type="line" smooth="yes"/>
      <point x="76" y="65"/>
      <point x="157" y="-12"/>
      <point x="269" y="-12" type="curve" smooth="yes"/>
      <point x="342" y="-12"/>
      <point x="410" y="21"/>
      <point x="439" y="90" type="curve"/>
      <point x="439" y="0" type="line"/>
      <point x="475" y="0" type="line"/>
    </contour>
  </outline>
</glyph>
<glyph name="schwa" format="2">
  <advance width="597"/>
  <unicode hex="0259"/>
  <anchor x="293" y="529" name="bottom"/>
  <anchor x="293" y="0" name="top"/>
  <outline>
    <contour>
      <point x="293" y="529" type="curve" smooth="yes"/>
      <point x="210" y="529"/>
      <point x="120" y="496"/>
      <point x="77" y="449" type="curve"/>
      <point x="102" y="422" type="line"/>
      <point x="145" y="469"/>
      <point x="219" y="493"/>
      <point x="293" y="493" type="curve" smooth="yes"/>
      <point x="411" y="493"/>
      <point x="511" y="385"/>
      <point x="511" y="257" type="curve" smooth="yes"/>
      <point x="511" y="127"/>
      <point x="415" y="24"/>
      <point x="293" y="24" type="curve" smooth="yes"/>
      <point x="167" y="24"/>
      <point x="83" y="116"/>
      <point x="83" y="253" type="curve"/>
      <point x="77" y="239" type="line"/>
      <point x="526" y="239" type="line"/>
      <point x="526" y="275" type="line"/>
      <point x="47" y="275" type="line"/>
      <point x="47" y="103"/>
      <point x="145" y="-12"/>
      <point x="293" y="-12" type="curve" smooth="yes"/>
      <point x="435" y="-12"/>
      <point x="547" y="106"/>
      <point x="547" y="257" type="curve" smooth="yes"/>
      <point x="547" y="405"/>
      <point x="431" y="529"/>
    </contour>
  </outline>
</glyph>
<glyph name="tilde" format="2">
  <advance width="416"/>
  <unicode hex="02DC"/>
  <anchor x="208" y="517" name="_top"/>
  <anchor x="208" y="704" name="top"/>
  <outline>
    <contour>
      <point x="292" y="586" type="curve" smooth="yes"/>
      <point x="341" y="586"/>
      <point x="374" y="626"/>
      <point x="383" y="694" type="curve"/>
      <point x="347" y="701" type="line"/>
      <point x="338" y="651"/>
      <point x="318" y="622"/>
      <point x="292" y="622" type="curve" smooth="yes"/>
      <point x="251" y="622"/>
      <point x="182" y="688"/>
      <point x="123" y="688" type="curve" smooth="yes"/>
      <point x="75" y="688"/>
      <point x="41" y="648"/>
      <point x="32" y="580" type="curve"/>
      <point x="68" y="573" type="line"/>
      <point x="76" y="623"/>
      <point x="97" y="652"/>
      <point x="123" y="652" type="curve" smooth="yes"/>
      <point x="164" y="652"/>
      <point x="233" y="586"/>
    </contour>
  </outline>
</glyph>
<glyph name="dotaccentcomb" format="2">
  <advance width="176"/>
  <unicode hex="0307"/>
  <anchor x="88" y="517" name="_top"/>
  <outline>
    <contour>
      <point x="88" y="631" type="curve" smooth="yes"/>
      <point x="104" y="631"/>
      <point x="118" y="644"/>
      <point x="118" y="661" type="curve" smooth="yes"/>
      <point x="118" y="677"/>
      <point x="104" y="691"/>
      <point x="88" y="691" type="curve" smooth="yes"/>
      <point x="71" y="691"/>
      <point x="58" y="677"/>
      <point x="58" y="661" type="curve" smooth="yes"/>
      <point x="58" y="644"/>
      <point x="71" y="631"/>
    </contour>
  </outline>
</glyph>
<glyph name="hookabovecomb" format="2">
  <advance width="554"/>
  <unicode hex="0309"/>
  <outline>
    <contour>
      <point x="259" y="571" type="line"/>
      <point x="293" y="571" type="line"/>
      <point x="293" y="589" type="line"/>
      <point x="327" y="604"/>
      <point x="362" y="629"/>
      <point x="362" y="670" type="curve" smooth="yes"/>
      <point x="362" y="719"/>
      <point x="322" y="736"/>
      <point x="279" y="736" type="curve" smooth="yes"/>
      <point x="253" y="736"/>
      <point x="228" y="727"/>
      <point x="205" y="715" type="curve"/>
      <point x="208" y="678" type="line"/>
      <point x="232" y="688"/>
      <point x="255" y="702"/>
      <point x="282" y="702" type="curve" smooth="yes"/>
      <point x="304" y="702"/>
      <point x="328" y="697"/>
      <point x="328" y="670" type="curve" smooth="yes"/>
      <point x="328" y="635"/>
      <point x="287" y="618"/>
      <point x="259" y="610" type="curve"/>
    </contour>
  </outline>
</glyph>
<glyph name="dblgravecomb" format="2">
  <advance width="458"/>
  <unicode hex="030F"/>
  <outline>
    <contour>
      <point x="229" y="709" type="line"/>
      <point x="347" y="576" type="line"/>
      <point x="395" y="576" type="line"/>
      <point x="270" y="718" type="line"/>
    </contour>
    <contour>
      <point x="63" y="709" type="line"/>
      <point x="181" y="576" type="line"/>
      <point x="229" y="576" type="line"/>
      <point x="104" y="718" type="line"/>
    </contour>
  </outline>
</glyph>
<glyph name="breveinvertedcomb" format="2">
  <advance width="418"/>
  <unicode hex="0311"/>
  <outline>
    <contour>
      <point x="209" y="675" type="curve" smooth="yes"/>
      <point x="153" y="675"/>
      <point x="103" y="655"/>
      <point x="63" y="615" type="curve"/>
      <point x="89" y="589" type="line"/>
      <point x="122" y="622"/>
      <point x="163" y="638"/>
      <point x="209" y="638" type="curve" smooth="yes"/>
      <point x="255" y="638"/>
      <point x="296" y="622"/>
      <point x="329" y="589" type="curve"/>
      <point x="355" y="615" type="line"/>
      <point x="315" y="654"/>
      <point x="265" y="675"/>
    </contour>
  </outline>
</glyph>
<glyph name="horncomb" format="2">
  <advance width="552"/>
  <unicode hex="031B"/>
  <outline>
    <contour>
      <point x="439" y="517" type="curve"/>
      <point x="432" y="517" type="line"/>
      <point x="432" y="493" type="line"/>
      <point x="439" y="493" type="line"/>
      <point x="525" y="493"/>
      <point x="579" y="553"/>
      <point x="579" y="638" type="curve"/>
      <point x="544" y="638" type="line"/>
      <point x="544" y="574"/>
      <point x="509" y="517"/>
    </contour>
  </outline>
</glyph>
<glyph name="dotbelowcomb" format="2">
  <advance width="595"/>
  <unicode hex="0323"/>
  <outline>
    <contour>
      <point x="300" y="-97" type="curve" smooth="yes"/>
      <point x="283" y="-97"/>
      <point x="270" y="-110"/>
      <point x="270" y="-127" type="curve" smooth="yes"/>
      <point x="270" y="-144"/>
      <point x="283" y="-157"/>
      <point x="300" y="-157" type="curve" smooth="yes"/>
      <point x="316" y="-157"/>
      <point x="330" y="-143"/>
      <point x="330" y="-127" type="curve" smooth="yes"/>
      <point x="330" y="-111"/>
      <point x="316" y="-97"/>
    </contour>
  </outline>
</glyph>
<glyph name="commaaccentcomb" format="2">
  <advance width="185"/>
  <unicode hex="0326"/>
  <anchor x="99" y="0" name="_bottom"/>
  <anchor x="99" y="517" name="_top"/>
  <outline>
    <contour>
      <point x="73" y="-268" type="line"/>
      <point x="112" y="-217"/>
      <point x="131" y="-174"/>
      <point x="131" y="-139" type="curve" smooth="yes"/>
      <point x="131" y="-112"/>
      <point x="118" y="-97"/>
      <point x="99" y="-97" type="curve" smooth="yes"/>
      <point x="81" y="-97"/>
      <point x="68" y="-110"/>
      <point x="68" y="-127" type="curve" smooth="yes"/>
      <point x="68" y="-144"/>
      <point x="80" y="-157"/>
      <point x="99" y="-157" type="curve"/>
      <point x="92" y="-185"/>
      <point x="73" y="-219"/>
      <point x="47" y="-249" type="curve"/>
    </contour>
  </outline>
</glyph>
<glyph name="Udotbelow" format="2">
  <advance width="704"/>
  <unicode hex="1EE4"/>
  <outline>
    <contour>
      <point x="350" y="-97" type="curve" smooth="yes"/>
      <point x="333" y="-97"/>
      <point x="320" y="-110"/>
      <point x="320" y="-127" type="curve" smooth="yes"/>
      <point x="320" y="-144"/>
      <point x="333" y="-157"/>
      <point x="350" y="-157" type="curve" smooth="yes"/>
      <point x="366" y="-157"/>
      <point x="380" y="-143"/>
      <point x="380" y="-127" type="curve" smooth="yes"/>
      <point x="380" y="-111"/>
      <point x="366" y="-97"/>
    </contour>
    <contour>
      <point x="86" y="265" type="line" smooth="yes"/>
      <point x="86" y="106"/>
      <point x="190" y="-12"/>
      <point x="352" y="-12" type="curve" smooth="yes"/>
      <point x="514" y="-12"/>
      <point x="618" y="106"/>
      <point x="618" y="265" type="curve" smooth="yes"/>
      <point x="618" y="687" type="line"/>
      <point x="582" y="687" type="line"/>
      <point x="582" y="265" type="line" smooth="yes"/>
      <point x="582" y="128"/>
      <point x="492" y="24"/>
      <point x="352" y="24" type="curve" smooth="yes"/>
      <point x="212" y="24"/>
      <point x="122" y="128"/>
      <point x="122" y="265" type="curve" smooth="yes"/>
      <point x="122" y="687" type="line"/>
      <point x="86" y="687" type="line"/>
    </contour>
  </outline>
</glyph>
<glyph name="udotbelow" format="2">
  <advance width="552"/>
  <unicode hex="1EE5"/>
  <outline>
    <contour>
      <point x="276" y="-97" type="curve" smooth="yes"/>
      <point x="259" y="-97"/>
      <point x="246" y="-110"/>
      <point x="246" y="-127" type="curve" smooth="yes"/>
      <point x="246" y="-144"/>
      <point x="259" y="-157"/>
      <point x="276" y="-157" type="curve" smooth="yes"/>
      <point x="292" y="-157"/>
      <point x="306" y="-143"/>
      <point x="306" y="-127" type="curve" smooth="yes"/>
      <point x="306" y="-111"/>
      <point x="292" y="-97"/>
    </contour>
    <contour>
      <point x="439" y="187" type="line" smooth="yes"/>
      <point x="439" y="90"/>
      <point x="370" y="24"/>
      <point x="274" y="24" type="curve" smooth="yes"/>
      <point x="179" y="24"/>
      <point x="112" y="87"/>
      <point x="112" y="183" type="curve" smooth="yes"/>
      <point x="112" y="517" type="line"/>
      <point x="76" y="517" type="line"/>
      <point x="76" y="178" type="line" smooth="yes"/>
      <point x="76" y="65"/>
      <point x="157" y="-12"/>
      <point x="269" y="-12" type="curve" smooth="yes"/>
      <point x="342" y="-12"/>
      <point x="410" y="21"/>
      <point x="439" y="90" type="curve"/>
      <point x="439" y="0" type="line"/>
      <point x="475" y="0" type="line"/>
      <point x="475" y="517" type="line"/>
      <point x="439" y="517" type="line"/>
    </contour>
  </outline>
</glyph>
<glyph name="fraction" format="2">
  <advance width="166"/>
  <unicode hex="2044"/>
  <outline>
    <contour>
      <point x="-118" y="0" type="line"/>
      <point x="344" y="687" type="line"/>
      <point x="295" y="687" type="line"/>
      <point x="-167" y="0" type="line"/>
    </contour>
  </outline>
</glyph>
<glyph name="zero.superior" format="2">
  <advance width="410"/>
  <unicode hex="2070"/>
  <outline>
    <contour>
      <point x="205" y="268" type="curve" smooth="yes"/>
      <point x="304" y="268"/>
      <point x="375" y="356"/>
      <point x="375" y="481" type="curve" smooth="yes"/>
      <point x="375" y="606"/>
      <point x="304" y="694"/>
      <point x="205" y="694" type="curve" smooth="yes"/>
      <point x="104" y="694"/>
      <point x="35" y="606"/>
      <point x="35" y="481" type="curve" smooth="yes"/>
      <point x="35" y="356"/>
      <point x="104" y="268"/>
    </contour>
    <contour>
      <point x="205" y="309" type="curve" smooth="yes"/>
      <point x="132" y="309"/>
      <point x="80" y="381"/>
      <point x="80" y="481" type="curve" smooth="yes"/>
      <point x="80" y="582"/>
      <point x="132" y="653"/>
      <point x="205" y="653" type="curve" smooth="yes"/>
      <point x="278" y="653"/>
      <point x="330" y="582"/>
      <point x="330" y="481" type="curve" smooth="yes"/>
      <point x="330" y="381"/>
      <point x="278" y="309"/>
    </contour>
  </outline>
</glyph>
<glyph name="five.superior" format="2">
  <advance width="351"/>
  <unicode hex="2075"/>
  <outline>
    <contour>
      <point x="174" y="268" type="curve" smooth="yes"/>
      <point x="257" y="268"/>
      <point x="319" y="323"/>
      <point x="319" y="403" type="curve" smooth="yes"/>
      <point x="319" y="484"/>
      <point x="257" y="532"/>
      <point x="184" y="532" type="curve" smooth="yes"/>
      <point x="146" y="532"/>
      <point x="117" y="519"/>
      <point x="95" y="503" type="curve"/>
      <point x="99" y="645" type="line"/>
      <point x="298" y="645" type="line"/>
      <point x="298" y="687" type="line"/>
      <point x="55" y="687" type="line"/>
      <point x="49" y="475" type="line"/>
      <point x="83" y="460" type="line"/>
      <point x="108" y="479"/>
      <point x="140" y="491"/>
      <point x="174" y="491" type="curve" smooth="yes"/>
      <point x="232" y="491"/>
      <point x="274" y="454"/>
      <point x="274" y="402" type="curve" smooth="yes"/>
      <point x="274" y="348"/>
      <point x="233" y="308"/>
      <point x="176" y="308" type="curve" smooth="yes"/>
      <point x="130" y="308"/>
      <point x="90" y="331"/>
      <point x="58" y="366" type="curve"/>
      <point x="29" y="333" type="line"/>
      <point x="62" y="295"/>
      <point x="111" y="268"/>
    </contour>
  </outline>
</glyph>
<glyph name="six.superior" format="2">
  <advance width="367"/>
  <unicode hex="2076"/>
  <outline>
    <contour>
      <point x="190" y="268" type="curve" smooth="yes"/>
      <point x="275" y="268"/>
      <point x="334" y="328"/>
      <point x="334" y="404" type="curve" smooth="yes"/>
      <point x="334" y="485"/>
      <point x="271" y="532"/>
      <point x="197" y="532" type="curve" smooth="yes"/>
      <point x="142" y="532"/>
      <point x="95" y="503"/>
      <point x="73" y="455" type="curve"/>
      <point x="83" y="397" type="line"/>
      <point x="85" y="454"/>
      <point x="130" y="494"/>
      <point x="189" y="494" type="curve" smooth="yes"/>
      <point x="244" y="494"/>
      <point x="289" y="458"/>
      <point x="289" y="402" type="curve" smooth="yes"/>
      <point x="289" y="355"/>
      <point x="251" y="306"/>
      <point x="190" y="306" type="curve" smooth="yes"/>
      <point x="115" y="306"/>
      <point x="80" y="382"/>
      <point x="80" y="475" type="curve" smooth="yes"/>
      <point x="80" y="575"/>
      <point x="132" y="654"/>
      <point x="199" y="654" type="curve" smooth="yes"/>
      <point x="239" y="654"/>
      <point x="267" y="636"/>
      <point x="293" y="611" type="curve"/>
      <point x="317" y="645" type="line"/>
      <point x="287" y="675"/>
      <point x="250" y="694"/>
      <point x="200" y="694" type="curve" smooth="yes"/>
      <point x="107" y="694"/>
      <point x="35" y="598"/>
      <point x="35" y="475" type="curve" smooth="yes"/>
      <point x="35" y="357"/>
      <point x="81" y="268"/>
    </contour>
  </outline>
</glyph>
<glyph name="seven.superior" format="2">
  <advance width="339"/>
  <unicode hex="2077"/>
  <outline>
    <contour>
      <point x="131" y="275" type="line"/>
      <point x="308" y="654" type="line"/>
      <point x="308" y="687" type="line"/>
      <point x="30" y="687" type="line"/>
      <point x="30" y="645" type="line"/>
      <point x="256" y="645" type="line"/>
      <point x="79" y="275" type="line"/>
    </contour>
  </outline>
</glyph>
<glyph name="eight.superior" format="2">
  <advance width="365"/>
  <unicode hex="2078"/>
  <outline>
    <contour>
      <point x="182" y="268" type="curve" smooth="yes"/>
      <point x="266" y="268"/>
      <point x="332" y="314"/>
      <point x="332" y="383" type="curve" smooth="yes"/>
      <point x="332" y="434"/>
      <point x="291" y="471"/>
      <point x="241" y="488" type="curve"/>
      <point x="284" y="504"/>
      <point x="322" y="535"/>
      <point x="322" y="585" type="curve" smooth="yes"/>
      <point x="322" y="651"/>
      <point x="255" y="694"/>
      <point x="182" y="694" type="curve" smooth="yes"/>
      <point x="111" y="694"/>
      <point x="44" y="653"/>
      <point x="44" y="585" type="curve" smooth="yes"/>
      <point x="44" y="539"/>
      <point x="77" y="506"/>
      <point x="124" y="488" type="curve"/>
      <point x="74" y="472"/>
      <point x="33" y="435"/>
      <point x="33" y="383" type="curve" smooth="yes"/>
      <point x="33" y="314"/>
      <point x="98" y="268"/>
    </contour>
    <contour>
      <point x="182" y="308" type="curve" smooth="yes"/>
      <point x="124" y="308"/>
      <point x="78" y="340"/>
      <point x="78" y="386" type="curve" smooth="yes"/>
      <point x="78" y="436"/>
      <point x="138" y="466"/>
      <point x="182" y="467" type="curve"/>
      <point x="228" y="466"/>
      <point x="287" y="436"/>
      <point x="287" y="386" type="curve" smooth="yes"/>
      <point x="287" y="340"/>
      <point x="239" y="308"/>
    </contour>
    <contour>
      <point x="182" y="506" type="curve"/>
      <point x="141" y="508"/>
      <point x="89" y="533"/>
      <point x="89" y="580" type="curve" smooth="yes"/>
      <point x="89" y="623"/>
      <point x="130" y="654"/>
      <point x="182" y="654" type="curve" smooth="yes"/>
      <point x="234" y="654"/>
      <point x="276" y="623"/>
      <point x="276" y="580" type="curve" smooth="yes"/>
      <point x="276" y="534"/>
      <point x="225" y="508"/>
    </contour>
  </outline>
</glyph>
<glyph name="nine.superior" format="2">
  <advance width="367"/>
  <unicode hex="2079"/>
  <outline>
    <contour>
      <point x="177" y="694" type="curve" smooth="yes"/>
      <point x="92" y="694"/>
      <point x="33" y="634"/>
      <point x="33" y="558" type="curve" smooth="yes"/>
      <point x="33" y="477"/>
      <point x="95" y="430"/>
      <point x="170" y="430" type="curve" smooth="yes"/>
      <point x="224" y="430"/>
      <point x="272" y="460"/>
      <point x="294" y="507" type="curve"/>
      <point x="284" y="565" type="line"/>
      <point x="282" y="508"/>
      <point x="237" y="468"/>
      <point x="178" y="468" type="curve" smooth="yes"/>
      <point x="122" y="468"/>
      <point x="78" y="504"/>
      <point x="78" y="560" type="curve" smooth="yes"/>
      <point x="78" y="607"/>
      <point x="116" y="656"/>
      <point x="177" y="656" type="curve" smooth="yes"/>
      <point x="252" y="656"/>
      <point x="287" y="580"/>
      <point x="287" y="487" type="curve" smooth="yes"/>
      <point x="287" y="387"/>
      <point x="235" y="308"/>
      <point x="168" y="308" type="curve" smooth="yes"/>
      <point x="128" y="308"/>
      <point x="100" y="326"/>
      <point x="74" y="351" type="curve"/>
      <point x="50" y="317" type="line"/>
      <point x="80" y="287"/>
      <point x="117" y="268"/>
      <point x="167" y="268" type="curve" smooth="yes"/>
      <point x="260" y="268"/>
      <point x="332" y="364"/>
      <point x="332" y="487" type="curve" smooth="yes"/>
      <point x="332" y="605"/>
      <point x="286" y="694"/>
    </contour>
  </outline>
</glyph>
<glyph name="zero.inferior" format="2">
  <advance width="410"/>
  <unicode hex="2080"/>
  <outline>
    <contour>
      <point x="205" y="-7" type="curve" smooth="yes"/>
      <point x="304" y="-7"/>
      <point x="375" y="81"/>
      <point x="375" y="206" type="curve" smooth="yes"/>
      <point x="375" y="331"/>
      <point x="304" y="419"/>
      <point x="205" y="419" type="curve" smooth="yes"/>
      <point x="104" y="419"/>
      <point x="35" y="331"/>
      <point x="35" y="206" type="curve" smooth="yes"/>
      <point x="35" y="81"/>
      <point x="104" y="-7"/>
    </contour>
    <contour>
      <point x="205" y="34" type="curve" smooth="yes"/>
      <point x="132" y="34"/>
      <point x="80" y="106"/>
      <point x="80" y="206" type="curve" smooth="yes"/>
      <point x="80" y="307"/>
      <point x="132" y="378"/>
      <point x="205" y="378" type="curve" smooth="yes"/>
      <point x="278" y="378"/>
      <point x="330" y="307"/>
      <point x="330" y="206" type="curve" smooth="yes"/>
      <point x="330" y="106"/>
      <point x="278" y="34"/>
    </contour>
  </outline>
</glyph>
<glyph name="one.inferior" format="2">
  <advance width="215"/>
  <unicode hex="2081"/>
  <outline>
    <contour>
      <point x="167" y="0" type="line"/>
      <point x="167" y="412" type="line"/>
      <point x="132" y="412" type="line"/>
      <point x="29" y="343" type="line"/>
      <point x="49" y="309" type="line"/>
      <point x="123" y="357" type="line"/>
      <point x="123" y="0" type="line"/>
    </contour>
  </outline>
</glyph>
<glyph name="two.inferior" format="2">
  <advance width="348"/>
  <unicode hex="2082"/>
  <outline>
    <contour>
      <point x="314" y="0" type="line"/>
      <point x="314" y="42" type="line"/>
      <point x="102" y="42" type="line"/>
      <point x="213" y="139" type="line" smooth="yes"/>
      <point x="283" y="198"/>
      <point x="310" y="243"/>
      <point x="310" y="298" type="curve" smooth="yes"/>
      <point x="310" y="371"/>
      <point x="251" y="419"/>
      <point x="179" y="419" type="curve" smooth="yes"/>
      <point x="116" y="419"/>
      <point x="69" y="390"/>
      <point x="35" y="340" type="curve"/>
      <point x="67" y="314" type="line"/>
      <point x="95" y="354"/>
      <point x="130" y="379"/>
      <point x="178" y="379" type="curve" smooth="yes"/>
      <point x="223" y="379"/>
      <point x="265" y="348"/>
      <point x="265" y="298" type="curve" smooth="yes"/>
      <point x="265" y="257"/>
      <point x="241" y="217"/>
      <point x="183" y="167" type="curve" smooth="yes"/>
      <point x="31" y="38" type="line"/>
      <point x="31" y="0" type="line"/>
    </contour>
  </outline>
</glyph>
<glyph name="three.inferior" format="2">
  <advance width="354"/>
  <unicode hex="2083"/>
  <outline>
    <contour>
      <point x="178" y="-7" type="curve" smooth="yes"/>
      <point x="263" y="-7"/>
      <point x="321" y="43"/>
      <point x="321" y="112" type="curve" smooth="yes"/>
      <point x="321" y="170"/>
      <point x="276" y="202"/>
      <point x="233" y="211" type="curve"/>
      <point x="275" y="224"/>
      <point x="312" y="255"/>
      <point x="312" y="308" type="curve" smooth="yes"/>
      <point x="312" y="374"/>
      <point x="254" y="419"/>
      <point x="176" y="419" type="curve" smooth="yes"/>
      <point x="113" y="419"/>
      <point x="69" y="389"/>
      <point x="36" y="347" type="curve"/>
      <point x="67" y="320" type="line"/>
      <point x="96" y="356"/>
      <point x="128" y="379"/>
      <point x="174" y="379" type="curve" smooth="yes"/>
      <point x="227" y="379"/>
      <point x="266" y="347"/>
      <point x="266" y="302" type="curve" smooth="yes"/>
      <point x="266" y="256"/>
      <point x="225" y="228"/>
      <point x="169" y="229" type="curve"/>
      <point x="125" y="229" type="line"/>
      <point x="125" y="188" type="line"/>
      <point x="168" y="188" type="line" smooth="yes"/>
      <point x="234" y="188"/>
      <point x="275" y="163"/>
      <point x="275" y="114" type="curve" smooth="yes"/>
      <point x="275" y="66"/>
      <point x="236" y="33"/>
      <point x="178" y="33" type="curve" smooth="yes"/>
      <point x="128" y="33"/>
      <point x="88" y="57"/>
      <point x="61" y="93" type="curve"/>
      <point x="29" y="65" type="line"/>
      <point x="60" y="24"/>
      <point x="111" y="-7"/>
    </contour>
  </outline>
</glyph>
<glyph name="four.inferior" format="2">
  <advance width="379"/>
  <unicode hex="2084"/>
  <outline>
    <contour>
      <point x="286" y="0" type="line"/>
      <point x="286" y="101" type="line"/>
      <point x="348" y="101" type="line"/>
      <point x="348" y="142" type="line"/>
      <point x="286" y="142" type="line"/>
      <point x="286" y="412" type="line"/>
      <point x="234" y="412" type="line"/>
      <point x="30" y="139" type="line"/>
      <point x="36" y="101" type="line"/>
      <point x="242" y="101" type="line"/>
      <point x="242" y="0" type="line"/>
    </contour>
    <contour>
      <point x="242" y="359" type="line"/>
      <point x="242" y="142" type="line"/>
      <point x="81" y="142" type="line"/>
    </contour>
  </outline>
</glyph>
<glyph name="five.inferior" format="2">
  <advance width="351"/>
  <unicode hex="2085"/>
  <outline>
    <contour>
      <point x="174" y="-7" type="curve" smooth="yes"/>
      <point x="257" y="-7"/>
      <point x="319" y="48"/>
      <point x="319" y="128" type="curve" smooth="yes"/>
      <point x="319" y="209"/>
      <point x="257" y="257"/>
      <point x="184" y="257" type="curve" smooth="yes"/>
      <point x="146" y="257"/>
      <point x="117" y="244"/>
      <point x="95" y="228" type="curve"/>
      <point x="99" y="370" type="line"/>
      <point x="298" y="370" type="line"/>
      <point x="298" y="412" type="line"/>
      <point x="55" y="412" type="line"/>
      <point x="49" y="200" type="line"/>
      <point x="83" y="185" type="line"/>
      <point x="108" y="204"/>
      <point x="140" y="216"/>
      <point x="174" y="216" type="curve" smooth="yes"/>
      <point x="232" y="216"/>
      <point x="274" y="179"/>
      <point x="274" y="127" type="curve" smooth="yes"/>
      <point x="274" y="73"/>
      <point x="233" y="33"/>
      <point x="176" y="33" type="curve" smooth="yes"/>
      <point x="130" y="33"/>
      <point x="90" y="56"/>
      <point x="58" y="91" type="curve"/>
      <point x="29" y="58" type="line"/>
      <point x="62" y="20"/>
      <point x="111" y="-7"/>
    </contour>
  </outline>
</glyph>
<glyph name="six.inferior" format="2">
  <advance width="367"/>
  <unicode hex="2086"/>
  <outline>
    <contour>
      <point x="190" y="-7" type="curve" smooth="yes"/>
      <point x="275" y="-7"/>
      <point x="334" y="53"/>
      <point x="334" y="129" type="curve" smooth="yes"/>
      <point x="334" y="210"/>
      <point x="271" y="257"/>
      <point x="197" y="257" type="curve" smooth="yes"/>
      <point x="142" y="257"/>
      <point x="95" y="228"/>
      <point x="73" y="180" type="curve"/>
      <point x="83" y="122" type="line"/>
      <point x="85" y="179"/>
      <point x="130" y="219"/>
      <point x="189" y="219" type="curve" smooth="yes"/>
      <point x="244" y="219"/>
      <point x="289" y="183"/>
      <point x="289" y="127" type="curve" smooth="yes"/>
      <point x="289" y="80"/>
      <point x="251" y="31"/>
      <point x="190" y="31" type="curve" smooth="yes"/>
      <point x="115" y="31"/>
      <point x="80" y="107"/>
      <point x="80" y="200" type="curve" smooth="yes"/>
      <point x="80" y="300"/>
      <point x="132" y="379"/>
      <point x="199" y="379" type="curve" smooth="yes"/>
      <point x="239" y="379"/>
      <point x="267" y="361"/>
      <point x="293" y="336" type="curve"/>
      <point x="317" y="370" type="line"/>
      <point x="287" y="400"/>
      <point x="250" y="419"/>
      <point x="200" y="419" type="curve" smooth="yes"/>
      <point x="107" y="419"/>
      <point x="35" y="323"/>
      <point x="35" y="200" type="curve" smooth="yes"/>
      <point x="35" y="82"/>
      <point x="81" y="-7"/>
    </contour>
  </outline>
</glyph>
<glyph name="seven.inferior" format="2">
  <advance width="339"/>
  <unicode hex="2087"/>
  <outline>
    <contour>
      <point x="131" y="0" type="line"/>
      <point x="308" y="379" type="line"/>
      <point x="308" y="412" type="line"/>
      <point x="30" y="412" type="line"/>
      <point x="30" y="370" type="line"/>
      <point x="256" y="370" type="line"/>
      <point x="79" y="0" type="line"/>
    </contour>
  </outline>
</glyph>
<glyph name="eight.inferior" format="2">
  <advance width="365"/>
  <unicode hex="2088"/>
  <outline>
    <contour>
      <point x="182" y="-7" type="curve" smooth="yes"/>
      <point x="266" y="-7"/>
      <point x="332" y="39"/>
      <point x="332" y="108" type="curve" smooth="yes"/>
      <point x="332" y="159"/>
      <point x="291" y="196"/>
      <point x="241" y="213" type="curve"/>
      <point x="284" y="229"/>
      <point x="322" y="260"/>
      <point x="322" y="310" type="curve" smooth="yes"/>
      <point x="322" y="376"/>
      <point x="255" y="419"/>
      <point x="182" y="419" type="curve" smooth="yes"/>
      <point x="111" y="419"/>
      <point x="44" y="378"/>
      <point x="44" y="310" type="curve" smooth="yes"/>
      <point x="44" y="264"/>
      <point x="77" y="231"/>
      <point x="124" y="213" type="curve"/>
      <point x="74" y="197"/>
      <point x="33" y="160"/>
      <point x="33" y="108" type="curve" smooth="yes"/>
      <point x="33" y="39"/>
      <point x="98" y="-7"/>
    </contour>
    <contour>
      <point x="182" y="33" type="curve" smooth="yes"/>
      <point x="124" y="33"/>
      <point x="78" y="65"/>
      <point x="78" y="111" type="curve" smooth="yes"/>
      <point x="78" y="161"/>
      <point x="138" y="191"/>
      <point x="182" y="192" type="curve"/>
      <point x="228" y="191"/>
      <point x="287" y="161"/>
      <point x="287" y="111" type="curve" smooth="yes"/>
      <point x="287" y="65"/>
      <point x="239" y="33"/>
    </contour>
    <contour>
      <point x="182" y="231" type="curve"/>
      <point x="141" y="233"/>
      <point x="89" y="258"/>
      <point x="89" y="305" type="curve" smooth="yes"/>
      <point x="89" y="348"/>
      <point x="130" y="379"/>
      <point x="182" y="379" type="curve" smooth="yes"/>
      <point x="234" y="379"/>
      <point x="276" y="348"/>
      <point x="276" y="305" type="curve" smooth="yes"/>
      <point x="276" y="259"/>
      <point x="225" y="233"/>
    </contour>
  </outline>
</glyph>
<glyph name="nine.inferior" format="2">
  <advance width="367"/>
  <unicode hex="2089"/>
  <outline>
    <contour>
      <point x="177" y="419" type="curve" smooth="yes"/>
      <point x="92" y="419"/>
      <point x="33" y="359"/>
      <point x="33" y="283" type="curve" smooth="yes"/>
      <point x="33" y="202"/>
      <point x="95" y="155"/>
      <point x="170" y="155" type="curve" smooth="yes"/>
      <point x="224" y="155"/>
      <point x="272" y="185"/>
      <point x="294" y="232" type="curve"/>
      <point x="284" y="290" type="line"/>
      <point x="282" y="233"/>
      <point x="237" y="193"/>
      <point x="178" y="193" type="curve" smooth="yes"/>
      <point x="122" y="193"/>
      <point x="78" y="229"/>
      <point x="78" y="285" type="curve" smooth="yes"/>
      <point x="78" y="332"/>
      <point x="116" y="381"/>
      <point x="177" y="381" type="curve" smooth="yes"/>
      <point x="252" y="381"/>
      <point x="287" y="305"/>
      <point x="287" y="212" type="curve" smooth="yes"/>
      <point x="287" y="112"/>
      <point x="235" y="33"/>
      <point x="168" y="33" type="curve" smooth="yes"/>
      <point x="128" y="33"/>
      <point x="100" y="51"/>
      <point x="74" y="76" type="curve"/>
      <point x="50" y="42" type="line"/>
      <point x="80" y="12"/>
      <point x="117" y="-7"/>
      <point x="167" y="-7" type="curve" smooth="yes"/>
      <point x="260" y="-7"/>
      <point x="332" y="89"/>
      <point x="332" y="212" type="curve" smooth="yes"/>
      <point x="332" y="330"/>
      <point x="286" y="419"/>
    </contour>
  </outline>
</glyph>
<glyph name="dong" format="2">
  <advance width="627"/>
  <unicode hex="20AB"/>
  <outline>
    <contour>
      <point x="527" y="-91" type="line"/>
      <point x="68" y="-91" type="line"/>
      <point x="68" y="-127" type="line"/>
      <point x="527" y="-127" type="line"/>
    </contour>
    <contour>
      <point x="526" y="699" type="line"/>
      <point x="490" y="699" type="line"/>
      <point x="490" y="628" type="line"/>
      <point x="300" y="628" type="line"/>
      <point x="300" y="592" type="line"/>
      <point x="490" y="592" type="line"/>
      <point x="490" y="409" type="line"/>
      <point x="448" y="486"/>
      <point x="373" y="529"/>
      <point x="286" y="529" type="curve" smooth="yes"/>
      <point x="143" y="529"/>
      <point x="54" y="391"/>
      <point x="54" y="259" type="curve" smooth="yes"/>
      <point x="54" y="128"/>
      <point x="144" y="-12"/>
      <point x="286" y="-12" type="curve" smooth="yes"/>
      <point x="373" y="-12"/>
      <point x="448" y="31"/>
      <point x="490" y="108" type="curve"/>
      <point x="490" y="0" type="line"/>
      <point x="526" y="0" type="line"/>
      <point x="526" y="592" type="line"/>
      <point x="590" y="592" type="line"/>
      <point x="590" y="628" type="line"/>
      <point x="526" y="628" type="line"/>
    </contour>
    <contour>
      <point x="293" y="24" type="curve" smooth="yes"/>
      <point x="168" y="24"/>
      <point x="90" y="143"/>
      <point x="90" y="259" type="curve" smooth="yes"/>
      <point x="90" y="374"/>
      <point x="170" y="493"/>
      <point x="293" y="493" type="curve" smooth="yes"/>
      <point x="425" y="493"/>
      <point x="490" y="379"/>
      <point x="490" y="259" type="curve" smooth="yes"/>
      <point x="490" y="139"/>
      <point x="425" y="24"/>
    </contour>
  </outline>
</glyph>
<glyph name="arrowleftuptip" format="2">
  <advance width="868"/>
  <unicode hex="21B0"/>
  <outline>
    <contour>
      <point x="257" y="563" type="line"/>
      <point x="777" y="563" type="line"/>
      <point x="777" y="0" type="line"/>
      <point x="801" y="0" type="line"/>
      <point x="801" y="586" type="line"/>
      <point x="257" y="586" type="line"/>
      <point x="257" y="750" type="line"/>
      <point x="67" y="574" type="line"/>
      <point x="257" y="399" type="line"/>
    </contour>
  </outline>
</glyph>
<glyph name="arrowrightdowntip" format="2">
  <advance width="868"/>
  <unicode hex="21B3"/>
  <outline>
    <contour>
      <point x="801" y="318" type="line"/>
      <point x="611" y="493" type="line"/>
      <point x="611" y="329" type="line"/>
      <point x="91" y="329" type="line"/>
      <point x="91" y="728" type="line"/>
      <point x="68" y="728" type="line"/>
      <point x="68" y="307" type="line"/>
      <point x="611" y="307" type="line"/>
      <point x="611" y="143" type="line"/>
    </contour>
  </outline>
</glyph>
<glyph name="arrowdblleft" format="2">
  <advance width="891"/>
  <unicode hex="21D0"/>
  <outline>
    <contour>
      <point x="402" y="17" type="line"/>
      <point x="183" y="235" type="line"/>
      <point x="798" y="235" type="line"/>
      <point x="798" y="259" type="line"/>
      <point x="159" y="259" type="line"/>
      <point x="100" y="318" type="line"/>
      <point x="159" y="378" type="line"/>
      <point x="798" y="378" type="line"/>
      <point x="798" y="400" type="line"/>
      <point x="182" y="400" type="line"/>
      <point x="402" y="621" type="line"/>
      <point x="386" y="637" type="line"/>
      <point x="67" y="318" type="line"/>
      <point x="386" y="0" type="line"/>
    </contour>
  </outline>
</glyph>
<glyph name="arrowrighttobar" format="2">
  <advance width="894"/>
  <unicode hex="21E5"/>
  <outline>
    <contour>
      <point x="741" y="363" type="line"/>
      <point x="551" y="539" type="line"/>
      <point x="551" y="375" type="line"/>
      <point x="60" y="375" type="line"/>
      <point x="60" y="353" type="line"/>
      <point x="551" y="353" type="line"/>
      <point x="551" y="188" type="line"/>
    </contour>
    <contour>
      <point x="835" y="182" type="line"/>
      <point x="835" y="546" type="line"/>
      <point x="812" y="546" type="line"/>
      <point x="812" y="182" type="line"/>
    </contour>
  </outline>
</glyph>
<glyph name="whitearrowupfrombar" format="2">
  <advance width="800"/>
  <unicode hex="21EA"/>
  <outline>
    <contour>
      <point x="548" y="244" type="line"/>
      <point x="548" y="443" type="line"/>
      <point x="741" y="443" type="line"/>
      <point x="400" y="784" type="line"/>
      <point x="60" y="443" type="line"/>
      <point x="253" y="443" type="line"/>
      <point x="253" y="244" type="line"/>
    </contour>
    <contour>
      <point x="275" y="466" type="line"/>
      <point x="114" y="466" type="line"/>
      <point x="400" y="752" type="line"/>
      <point x="687" y="466" type="line"/>
      <point x="525" y="466" type="line"/>
      <point x="525" y="267" type="line"/>
      <point x="275" y="267" type="line"/>
    </contour>
    <contour>
      <point x="548" y="0" type="line"/>
      <point x="548" y="159" type="line"/>
      <point x="253" y="159" type="line"/>
      <point x="253" y="0" type="line"/>
    </contour>
    <contour>
      <point x="275" y="137" type="line"/>
      <point x="525" y="137" type="line"/>
      <point x="525" y="22" type="line"/>
      <point x="275" y="22" type="line"/>
    </contour>
  </outline>
</glyph>
<glyph name="Euro.tf" format="2">
  <advance width="700"/>
  <anchor x="455" y="-0" name="bottom"/>
  <anchor x="455" y="687" name="top"/>
  <outline>
    <contour>
      <point x="496" y="252" type="line"/>
      <point x="496" y="288" type="line"/>
      <point x="0" y="288" type="line"/>
      <point x="0" y="252" type="line"/>
    </contour>
    <contour>
      <point x="496" y="419" type="line"/>
      <point x="496" y="455" type="line"/>
      <point x="0" y="455" type="line"/>
      <point x="0" y="419" type="line"/>
    </contour>
    <contour>
      <point x="455" y="-12" type="curve" smooth="yes"/>
      <point x="550" y="-12"/>
      <point x="638" y="29"/>
      <point x="702" y="93" type="curve"/>
      <point x="676" y="119" type="line"/>
      <point x="619" y="60"/>
      <point x="540" y="24"/>
      <point x="455" y="24" type="curve" smooth="yes"/>
      <point x="283" y="24"/>
      <point x="139" y="170"/>
      <point x="139" y="344" type="curve" smooth="yes"/>
      <point x="139" y="517"/>
      <point x="283" y="663"/>
      <point x="455" y="663" type="curve" smooth="yes"/>
      <point x="540" y="663"/>
      <point x="619" y="627"/>
      <point x="676" y="569" type="curve"/>
      <point x="702" y="594" type="line"/>
      <point x="638" y="659"/>
      <point x="550" y="699"/>
      <point x="455" y="699" type="curve" smooth="yes"/>
      <point x="264" y="699"/>
      <point x="103" y="537"/>
      <point x="103" y="344" type="curve" smooth="yes"/>
      <point x="103" y="151"/>
      <point x="264" y="-12"/>
    </contour>
  </outline>
</glyph>
<glyph name="a.alt" format="2">
  <advance width="591"/>
  <anchor x="523" y="0" name="bottom"/>
  <anchor x="295" y="517" name="top"/>
  <outline>
    <contour>
      <point x="523" y="0" type="line"/>
      <point x="523" y="517" type="line"/>
      <point x="487" y="517" type="line"/>
      <point x="487" y="0" type="line"/>
    </contour>
    <contour>
      <point x="283" y="-12" type="curve" smooth="yes"/>
      <point x="418" y="-12"/>
      <point x="513" y="99"/>
      <point x="513" y="259" type="curve" smooth="yes"/>
      <point x="513" y="418"/>
      <point x="418" y="529"/>
      <point x="283" y="529" type="curve" smooth="yes"/>
      <point x="146" y="529"/>
      <point x="51" y="418"/>
      <point x="51" y="259" type="curve" smooth="yes"/>
      <point x="51" y="99"/>
      <point x="146" y="-12"/>
    </contour>
    <contour>
      <point x="290" y="24" type="curve" smooth="yes"/>
      <point x="171" y="24"/>
      <point x="87" y="121"/>
      <point x="87" y="259" type="curve" smooth="yes"/>
      <point x="87" y="397"/>
      <point x="171" y="493"/>
      <point x="290" y="493" type="curve" smooth="yes"/>
      <point x="406" y="493"/>
      <point x="487" y="397"/>
      <point x="487" y="259" type="curve" smooth="yes"/>
      <point x="487" y="121"/>
      <point x="406" y="24"/>
    </contour>
  </outline>
</glyph>
<glyph name="breveacute.case" format="2">
  <advance width="710"/>
  <outline>
    <contour>
      <point x="472" y="935.7" type="line"/>
      <point x="431" y="942" type="line"/>
      <point x="306" y="842.6" type="line"/>
      <point x="354" y="842.6" type="line"/>
    </contour>
    <contour>
      <point x="475" y="819.5" type="line"/>
      <point x="442" y="796.4"/>
      <point x="401" y="785.2"/>
      <point x="355" y="785.2" type="curve" smooth="yes"/>
      <point x="309" y="785.2"/>
      <point x="268" y="796.4"/>
      <point x="235" y="819.5" type="curve"/>
      <point x="209" y="801.3" type="line"/>
      <point x="249" y="774"/>
      <point x="299" y="759.3"/>
      <point x="355" y="759.3" type="curve" smooth="yes"/>
      <point x="411" y="759.3"/>
      <point x="461" y="773.3"/>
      <point x="501" y="801.3" type="curve"/>
    </contour>
  </outline>
</glyph>
<glyph name="breveacute" format="2">
  <advance width="554"/>
  <outline>
    <contour>
      <point x="406" y="841" type="line"/>
      <point x="365" y="850" type="line"/>
      <point x="240" y="708" type="line"/>
      <point x="288" y="708" type="line"/>
    </contour>
    <contour>
      <point x="409" y="675" type="line"/>
      <point x="376" y="642"/>
      <point x="335" y="626"/>
      <point x="289" y="626" type="curve" smooth="yes"/>
      <point x="243" y="626"/>
      <point x="202" y="642"/>
      <point x="169" y="675" type="curve"/>
      <point x="143" y="649" type="line"/>
      <point x="183" y="610"/>
      <point x="233" y="589"/>
      <point x="289" y="589" type="curve" smooth="yes"/>
      <point x="345" y="589"/>
      <point x="395" y="609"/>
      <point x="435" y="649" type="curve"/>
    </contour>
  </outline>
</glyph>
<glyph name="brevegrave.case" format="2">
  <advance width="710"/>
  <outline>
    <contour>
      <point x="238" y="935.7" type="line"/>
      <point x="356" y="842.6" type="line"/>
      <point x="404" y="842.6" type="line"/>
      <point x="279" y="942" type="line"/>
    </contour>
    <contour>
      <point x="475" y="819.5" type="line"/>
      <point x="442" y="796.4"/>
      <point x="401" y="785.2"/>
      <point x="355" y="785.2" type="curve" smooth="yes"/>
      <point x="309" y="785.2"/>
      <point x="268" y="796.4"/>
      <point x="235" y="819.5" type="curve"/>
      <point x="209" y="801.3" type="line"/>
      <point x="249" y="774"/>
      <point x="299" y="759.3"/>
      <point x="355" y="759.3" type="curve" smooth="yes"/>
      <point x="411" y="759.3"/>
      <point x="461" y="773.3"/>
      <point x="501" y="801.3" type="curve"/>
    </contour>
  </outline>
</glyph>
<glyph name="brevegrave" format="2">
  <advance width="554"/>
  <outline>
    <contour>
      <point x="172" y="841" type="line"/>
      <point x="290" y="708" type="line"/>
      <point x="338" y="708" type="line"/>
      <point x="213" y="850" type="line"/>
    </contour>
    <contour>
      <point x="409" y="675" type="line"/>
      <point x="376" y="642"/>
      <point x="335" y="626"/>
      <point x="289" y="626" type="curve" smooth="yes"/>
      <point x="243" y="626"/>
      <point x="202" y="642"/>
      <point x="169" y="675" type="curve"/>
      <point x="143" y="649" type="line"/>
      <point x="183" y="610"/>
      <point x="233" y="589"/>
      <point x="289" y="589" type="curve" smooth="yes"/>
      <point x="345" y="589"/>
      <point x="395" y="609"/>
      <point x="435" y="649" type="curve"/>
    </contour>
  </outline>
</glyph>
<glyph name="brevehoi.case" format="2">
  <advance width="710"/>
  <outline>
    <contour>
      <point x="403" y="896" type="curve" smooth="yes"/>
      <point x="403" y="871"/>
      <point x="362" y="859"/>
      <point x="334" y="854" type="curve"/>
      <point x="334" y="827" type="line"/>
      <point x="368" y="827" type="line"/>
      <point x="368" y="839" type="line"/>
      <point x="402" y="850"/>
      <point x="437" y="867"/>
      <point x="437" y="896" type="curve" smooth="yes"/>
      <point x="437" y="930"/>
      <point x="397" y="942"/>
      <point x="354" y="942" type="curve" smooth="yes"/>
      <point x="328" y="942"/>
      <point x="303" y="936"/>
      <point x="280" y="927" type="curve"/>
      <point x="283" y="901" type="line"/>
      <point x="307" y="908"/>
      <point x="330" y="918"/>
      <point x="357" y="918" type="curve" smooth="yes"/>
      <point x="379" y="918"/>
      <point x="403" y="915"/>
    </contour>
    <contour>
      <point x="475" y="820" type="line"/>
      <point x="442" y="796"/>
      <point x="401" y="785"/>
      <point x="355" y="785" type="curve" smooth="yes"/>
      <point x="309" y="785"/>
      <point x="268" y="796"/>
      <point x="235" y="820" type="curve"/>
      <point x="209" y="801" type="line"/>
      <point x="249" y="774"/>
      <point x="299" y="759"/>
      <point x="355" y="759" type="curve" smooth="yes"/>
      <point x="411" y="759"/>
      <point x="461" y="773"/>
      <point x="501" y="801" type="curve"/>
    </contour>
  </outline>
</glyph>
<glyph name="brevehoi" format="2">
  <advance width="554"/>
  <outline>
    <contour>
      <point x="337" y="784" type="curve" smooth="yes"/>
      <point x="337" y="749"/>
      <point x="296" y="732"/>
      <point x="268" y="724" type="curve"/>
      <point x="268" y="685" type="line"/>
      <point x="302" y="685" type="line"/>
      <point x="302" y="703" type="line"/>
      <point x="336" y="718"/>
      <point x="371" y="743"/>
      <point x="371" y="784" type="curve" smooth="yes"/>
      <point x="371" y="833"/>
      <point x="331" y="850"/>
      <point x="288" y="850" type="curve" smooth="yes"/>
      <point x="262" y="850"/>
      <point x="237" y="841"/>
      <point x="214" y="829" type="curve"/>
      <point x="217" y="792" type="line"/>
      <point x="241" y="802"/>
      <point x="264" y="816"/>
      <point x="291" y="816" type="curve" smooth="yes"/>
      <point x="313" y="816"/>
      <point x="337" y="811"/>
    </contour>
    <contour>
      <point x="409" y="675" type="line"/>
      <point x="376" y="642"/>
      <point x="335" y="626"/>
      <point x="289" y="626" type="curve" smooth="yes"/>
      <point x="243" y="626"/>
      <point x="202" y="642"/>
      <point x="169" y="675" type="curve"/>
      <point x="143" y="649" type="line"/>
      <point x="183" y="610"/>
      <point x="233" y="589"/>
      <point x="289" y="589" type="curve" smooth="yes"/>
      <point x="345" y="589"/>
      <point x="395" y="609"/>
      <point x="435" y="649" type="curve"/>
    </contour>
  </outline>
</glyph>
<glyph name="brevetilde.case" format="2">
  <advance width="710"/>
  <outline>
    <contour>
      <point x="290" y="913" type="curve" smooth="yes"/>
      <point x="320" y="913"/>
      <point x="370" y="866"/>
      <point x="419" y="866" type="curve" smooth="yes"/>
      <point x="479" y="866"/>
      <point x="503" y="906"/>
      <point x="510" y="942" type="curve"/>
      <point x="474" y="947" type="line"/>
      <point x="469" y="927"/>
      <point x="457" y="892"/>
      <point x="419" y="892" type="curve" smooth="yes"/>
      <point x="389" y="892"/>
      <point x="339" y="938"/>
      <point x="290" y="938" type="curve" smooth="yes"/>
      <point x="231" y="938"/>
      <point x="206" y="897"/>
      <point x="199" y="862" type="curve"/>
      <point x="235" y="857" type="line"/>
      <point x="240" y="878"/>
      <point x="252" y="913"/>
    </contour>
    <contour>
      <point x="475" y="820" type="line"/>
      <point x="442" y="796"/>
      <point x="401" y="785"/>
      <point x="355" y="785" type="curve" smooth="yes"/>
      <point x="309" y="785"/>
      <point x="268" y="796"/>
      <point x="235" y="820" type="curve"/>
      <point x="209" y="801" type="line"/>
      <point x="249" y="774"/>
      <point x="299" y="759"/>
      <point x="355" y="759" type="curve" smooth="yes"/>
      <point x="411" y="759"/>
      <point x="461" y="773"/>
      <point x="501" y="801" type="curve"/>
    </contour>
  </outline>
</glyph>
<glyph name="brevetilde" format="2">
  <advance width="554"/>
  <outline>
    <contour>
      <point x="224" y="808" type="curve" smooth="yes"/>
      <point x="254" y="808"/>
      <point x="304" y="742"/>
      <point x="353" y="742" type="curve" smooth="yes"/>
      <point x="413" y="742"/>
      <point x="437" y="799"/>
      <point x="444" y="850" type="curve"/>
      <point x="408" y="857" type="line"/>
      <point x="403" y="828"/>
      <point x="391" y="778"/>
      <point x="353" y="778" type="curve" smooth="yes"/>
      <point x="323" y="778"/>
      <point x="273" y="844"/>
      <point x="224" y="844" type="curve" smooth="yes"/>
      <point x="165" y="844"/>
      <point x="140" y="786"/>
      <point x="133" y="736" type="curve"/>
      <point x="169" y="729" type="line"/>
      <point x="174" y="759"/>
      <point x="186" y="808"/>
    </contour>
    <contour>
      <point x="409" y="675" type="line"/>
      <point x="376" y="642"/>
      <point x="335" y="626"/>
      <point x="289" y="626" type="curve" smooth="yes"/>
      <point x="243" y="626"/>
      <point x="202" y="642"/>
      <point x="169" y="675" type="curve"/>
      <point x="143" y="649" type="line"/>
      <point x="183" y="610"/>
      <point x="233" y="589"/>
      <point x="289" y="589" type="curve" smooth="yes"/>
      <point x="345" y="589"/>
      <point x="395" y="609"/>
      <point x="435" y="649" type="curve"/>
    </contour>
  </outline>
</glyph>
<glyph name="circumflexacute.case" format="2">
  <advance width="710"/>
  <outline>
    <contour>
      <point x="594" y="935.2" type="line"/>
      <point x="553" y="941.5" type="line"/>
      <point x="428" y="842.1" type="line"/>
      <point x="476" y="842.1" type="line"/>
    </contour>
    <contour>
      <point x="485" y="746.2" type="line"/>
      <point x="377" y="842.1" type="line"/>
      <point x="333" y="842.1" type="line"/>
      <point x="227" y="746.2" type="line"/>
      <point x="271" y="746.2" type="line"/>
      <point x="355" y="820.4" type="line"/>
      <point x="441" y="746.2" type="line"/>
    </contour>
  </outline>
</glyph>
<glyph name="circumflexgrave" format="2">
  <advance width="554"/>
  <outline>
    <contour>
      <point x="289" y="846" type="line"/>
      <point x="407" y="713" type="line"/>
      <point x="455" y="713" type="line"/>
      <point x="330" y="855" type="line"/>
    </contour>
    <contour>
      <point x="419" y="576" type="line"/>
      <point x="311" y="713" type="line"/>
      <point x="267" y="713" type="line"/>
      <point x="161" y="576" type="line"/>
      <point x="205" y="576" type="line"/>
      <point x="289" y="682" type="line"/>
      <point x="375" y="576" type="line"/>
    </contour>
  </outline>
</glyph>
<glyph name="circumflexhoi.case" format="2">
  <advance width="710"/>
  <outline>
    <contour>
      <point x="417" y="900.9" type="line"/>
      <point x="441" y="907.9"/>
      <point x="464" y="917.7"/>
      <point x="491" y="917.7" type="curve" smooth="yes"/>
      <point x="513" y="917.7"/>
      <point x="537" y="914.2"/>
      <point x="537" y="895.3" type="curve" smooth="yes"/>
      <point x="537" y="870.8"/>
      <point x="496" y="858.9"/>
      <point x="468" y="853.3" type="curve"/>
      <point x="468" y="826" type="line"/>
      <point x="502" y="826" type="line"/>
      <point x="502" y="838.6" type="line"/>
      <point x="536" y="849.1"/>
      <point x="571" y="866.6"/>
      <point x="571" y="895.3" type="curve" smooth="yes"/>
      <point x="571" y="929.6"/>
      <point x="531" y="941.5"/>
      <point x="488" y="941.5" type="curve" smooth="yes"/>
      <point x="462" y="941.5"/>
      <point x="437" y="935.2"/>
      <point x="414" y="926.8" type="curve"/>
    </contour>
    <contour>
      <point x="227" y="746.2" type="line"/>
      <point x="271" y="746.2" type="line"/>
      <point x="355" y="820.4" type="line"/>
      <point x="441" y="746.2" type="line"/>
      <point x="485" y="746.2" type="line"/>
      <point x="377" y="842.1" type="line"/>
      <point x="333" y="842.1" type="line"/>
    </contour>
  </outline>
</glyph>
<glyph name="circumflexhoi" format="2">
  <advance width="554"/>
  <outline>
    <contour>
      <point x="402" y="690" type="line"/>
      <point x="436" y="690" type="line"/>
      <point x="436" y="708" type="line"/>
      <point x="470" y="723"/>
      <point x="505" y="748"/>
      <point x="505" y="789" type="curve" smooth="yes"/>
      <point x="505" y="838"/>
      <point x="465" y="855"/>
      <point x="422" y="855" type="curve" smooth="yes"/>
      <point x="396" y="855"/>
      <point x="371" y="846"/>
      <point x="348" y="834" type="curve"/>
      <point x="351" y="797" type="line"/>
      <point x="375" y="807"/>
      <point x="398" y="821"/>
      <point x="425" y="821" type="curve" smooth="yes"/>
      <point x="447" y="821"/>
      <point x="471" y="816"/>
      <point x="471" y="789" type="curve" smooth="yes"/>
      <point x="471" y="754"/>
      <point x="430" y="737"/>
      <point x="402" y="729" type="curve"/>
    </contour>
    <contour>
      <point x="161" y="576" type="line"/>
      <point x="205" y="576" type="line"/>
      <point x="289" y="682" type="line"/>
      <point x="375" y="576" type="line"/>
      <point x="419" y="576" type="line"/>
      <point x="311" y="713" type="line"/>
      <point x="267" y="713" type="line"/>
    </contour>
  </outline>
</glyph>
<glyph name="circumflextilde.case" format="2">
  <advance width="710"/>
  <outline>
    <contour>
      <point x="290" y="908.6" type="curve" smooth="yes"/>
      <point x="320" y="908.6"/>
      <point x="370" y="862.4"/>
      <point x="419" y="862.4" type="curve" smooth="yes"/>
      <point x="479" y="862.4"/>
      <point x="503" y="902.3"/>
      <point x="510" y="938" type="curve"/>
      <point x="474" y="942.9" type="line"/>
      <point x="469" y="922.6"/>
      <point x="457" y="887.6"/>
      <point x="419" y="887.6" type="curve" smooth="yes"/>
      <point x="389" y="887.6"/>
      <point x="339" y="933.8"/>
      <point x="290" y="933.8" type="curve" smooth="yes"/>
      <point x="231" y="933.8"/>
      <point x="206" y="893.2"/>
      <point x="199" y="858.2" type="curve"/>
      <point x="235" y="853.3" type="line"/>
      <point x="240" y="874.3"/>
      <point x="252" y="908.6"/>
    </contour>
    <contour>
      <point x="485" y="746.2" type="line"/>
      <point x="377" y="842.1" type="line"/>
      <point x="333" y="842.1" type="line"/>
      <point x="227" y="746.2" type="line"/>
      <point x="271" y="746.2" type="line"/>
      <point x="355" y="820.4" type="line"/>
      <point x="441" y="746.2" type="line"/>
    </contour>
  </outline>
</glyph>
<glyph name="circumflextilde" format="2">
  <advance width="554"/>
  <outline>
    <contour>
      <point x="224" y="808" type="curve" smooth="yes"/>
      <point x="254" y="808"/>
      <point x="304" y="742"/>
      <point x="353" y="742" type="curve" smooth="yes"/>
      <point x="413" y="742"/>
      <point x="437" y="799"/>
      <point x="444" y="850" type="curve"/>
      <point x="408" y="857" type="line"/>
      <point x="403" y="828"/>
      <point x="391" y="778"/>
      <point x="353" y="778" type="curve" smooth="yes"/>
      <point x="323" y="778"/>
      <point x="273" y="844"/>
      <point x="224" y="844" type="curve" smooth="yes"/>
      <point x="165" y="844"/>
      <point x="140" y="786"/>
      <point x="133" y="736" type="curve"/>
      <point x="169" y="729" type="line"/>
      <point x="174" y="759"/>
      <point x="186" y="808"/>
    </contour>
    <contour>
      <point x="419" y="576" type="line"/>
      <point x="311" y="713" type="line"/>
      <point x="267" y="713" type="line"/>
      <point x="161" y="576" type="line"/>
      <point x="205" y="576" type="line"/>
      <point x="289" y="682" type="line"/>
      <point x="375" y="576" type="line"/>
    </contour>
  </outline>
</glyph>
<glyph name="colon.tf" format="2">
  <advance width="315"/>
  <outline>
    <contour>
      <point x="158" y="437" type="curve" smooth="yes"/>
      <point x="174" y="437"/>
      <point x="187" y="451"/>
      <point x="187" y="468" type="curve" smooth="yes"/>
      <point x="187" y="483"/>
      <point x="174" y="497"/>
      <point x="158" y="497" type="curve" smooth="yes"/>
      <point x="140" y="497"/>
      <point x="127" y="483"/>
      <point x="127" y="468" type="curve" smooth="yes"/>
      <point x="127" y="451"/>
      <point x="140" y="437"/>
    </contour>
    <contour>
      <point x="158" y="-12" type="curve" smooth="yes"/>
      <point x="174" y="-12"/>
      <point x="187" y="2"/>
      <point x="187" y="19" type="curve" smooth="yes"/>
      <point x="187" y="34"/>
      <point x="174" y="48"/>
      <point x="158" y="48" type="curve" smooth="yes"/>
      <point x="140" y="48"/>
      <point x="127" y="34"/>
      <point x="127" y="19" type="curve" smooth="yes"/>
      <point x="127" y="2"/>
      <point x="140" y="-12"/>
    </contour>
  </outline>
</glyph>
<glyph name="divide.tf" format="2">
  <advance width="700"/>
  <outline>
    <contour>
      <point x="573" y="316" type="line"/>
      <point x="573" y="352" type="line"/>
      <point x="114" y="352" type="line"/>
      <point x="114" y="316" type="line"/>
    </contour>
    <contour>
      <point x="345" y="142" type="curve" smooth="yes"/>
      <point x="361" y="142"/>
      <point x="374" y="156"/>
      <point x="374" y="173" type="curve" smooth="yes"/>
      <point x="374" y="188"/>
      <point x="361" y="202"/>
      <point x="345" y="202" type="curve" smooth="yes"/>
      <point x="327" y="202"/>
      <point x="314" y="188"/>
      <point x="314" y="173" type="curve" smooth="yes"/>
      <point x="314" y="156"/>
      <point x="327" y="142"/>
    </contour>
    <contour>
      <point x="345" y="466" type="curve" smooth="yes"/>
      <point x="361" y="466"/>
      <point x="374" y="480"/>
      <point x="374" y="497" type="curve" smooth="yes"/>
      <point x="374" y="512"/>
      <point x="361" y="526"/>
      <point x="345" y="526" type="curve" smooth="yes"/>
      <point x="327" y="526"/>
      <point x="314" y="512"/>
      <point x="314" y="497" type="curve" smooth="yes"/>
      <point x="314" y="480"/>
      <point x="327" y="466"/>
    </contour>
  </outline>
</glyph>
<glyph name="dollar.tf.rvrn" format="2">
  <advance width="700"/>
  <anchor x="362" y="-0" name="bottom"/>
  <anchor x="362" y="687" name="top"/>
  <outline>
    <contour>
      <point x="363" y="-74" type="line"/>
      <point x="363" y="12" type="line"/>
      <point x="327" y="12" type="line"/>
      <point x="327" y="-74" type="line"/>
    </contour>
    <contour>
      <point x="363" y="687" type="line"/>
      <point x="363" y="759" type="line"/>
      <point x="327" y="759" type="line"/>
      <point x="327" y="687" type="line"/>
    </contour>
    <contour>
      <point x="368" y="-11" type="curve" smooth="yes"/>
      <point x="504" y="-11"/>
      <point x="600" y="67"/>
      <point x="600" y="177" type="curve" smooth="yes"/>
      <point x="600" y="273"/>
      <point x="535" y="327"/>
      <point x="374" y="365" type="curve" smooth="yes"/>
      <point x="226" y="401"/>
      <point x="167" y="441"/>
      <point x="167" y="507" type="curve" smooth="yes"/>
      <point x="167" y="599"/>
      <point x="242" y="664"/>
      <point x="349" y="664" type="curve" smooth="yes"/>
      <point x="429" y="664"/>
      <point x="507" y="631"/>
      <point x="566" y="574" type="curve"/>
      <point x="588" y="602" type="line"/>
      <point x="521" y="664"/>
      <point x="435" y="700"/>
      <point x="351" y="700" type="curve" smooth="yes"/>
      <point x="222" y="700"/>
      <point x="131" y="619"/>
      <point x="131" y="504" type="curve" smooth="yes"/>
      <point x="131" y="418"/>
      <point x="195" y="369"/>
      <point x="356" y="332" type="curve" smooth="yes"/>
      <point x="505" y="297"/>
      <point x="564" y="252"/>
      <point x="564" y="174" type="curve" smooth="yes"/>
      <point x="564" y="87"/>
      <point x="483" y="25"/>
      <point x="369" y="25" type="curve" smooth="yes"/>
      <point x="275" y="25"/>
      <point x="182" y="63"/>
      <point x="119" y="126" type="curve"/>
      <point x="97" y="98" type="line"/>
      <point x="167" y="29"/>
      <point x="267" y="-11"/>
    </contour>
  </outline>
</glyph>
<glyph name="dong.tf" format="2">
  <advance width="700"/>
  <outline>
    <contour>
      <point x="563" y="-91" type="line"/>
      <point x="104" y="-91" type="line"/>
      <point x="104" y="-127" type="line"/>
      <point x="563" y="-127" type="line"/>
    </contour>
    <contour>
      <point x="562" y="699" type="line"/>
      <point x="526" y="699" type="line"/>
      <point x="526" y="628" type="line"/>
      <point x="336" y="628" type="line"/>
      <point x="336" y="592" type="line"/>
      <point x="526" y="592" type="line"/>
      <point x="526" y="409" type="line"/>
      <point x="484" y="486"/>
      <point x="409" y="529"/>
      <point x="322" y="529" type="curve" smooth="yes"/>
      <point x="179" y="529"/>
      <point x="90" y="391"/>
      <point x="90" y="259" type="curve" smooth="yes"/>
      <point x="90" y="128"/>
      <point x="180" y="-12"/>
      <point x="322" y="-12" type="curve" smooth="yes"/>
      <point x="409" y="-12"/>
      <point x="484" y="31"/>
      <point x="526" y="108" type="curve"/>
      <point x="526" y="0" type="line"/>
      <point x="562" y="0" type="line"/>
      <point x="562" y="592" type="line"/>
      <point x="626" y="592" type="line"/>
      <point x="626" y="628" type="line"/>
      <point x="562" y="628" type="line"/>
    </contour>
    <contour>
      <point x="329" y="24" type="curve" smooth="yes"/>
      <point x="204" y="24"/>
      <point x="126" y="143"/>
      <point x="126" y="259" type="curve" smooth="yes"/>
      <point x="126" y="374"/>
      <point x="206" y="493"/>
      <point x="329" y="493" type="curve" smooth="yes"/>
      <point x="461" y="493"/>
      <point x="526" y="379"/>
      <point x="526" y="259" type="curve" smooth="yes"/>
      <point x="526" y="139"/>
      <point x="461" y="24"/>
    </contour>
  </outline>
</glyph>
<glyph name="equal.tf" format="2">
  <advance width="700"/>
  <outline>
    <contour>
      <point x="579" y="426" type="line"/>
      <point x="579" y="462" type="line"/>
      <point x="120" y="462" type="line"/>
      <point x="120" y="426" type="line"/>
    </contour>
    <contour>
      <point x="579" y="206" type="line"/>
      <point x="579" y="242" type="line"/>
      <point x="120" y="242" type="line"/>
      <point x="120" y="206" type="line"/>
    </contour>
  </outline>
</glyph>
<glyph name="four.tf" format="2">
  <advance width="700"/>
  <outline>
    <contour>
      <point x="487" y="0" type="line"/>
      <point x="487" y="185" type="line"/>
      <point x="601" y="185" type="line"/>
      <point x="601" y="221" type="line"/>
      <point x="487" y="221" type="line"/>
      <point x="487" y="687" type="line"/>
      <point x="437" y="687" type="line"/>
      <point x="98" y="222" type="line"/>
      <point x="104" y="185" type="line"/>
      <point x="451" y="185" type="line"/>
      <point x="451" y="0" type="line"/>
    </contour>
    <contour>
      <point x="451" y="644" type="line"/>
      <point x="451" y="221" type="line"/>
      <point x="143" y="221" type="line"/>
    </contour>
  </outline>
</glyph>
<glyph name="greater.tf" format="2">
  <advance width="700"/>
  <outline>
    <contour>
      <point x="579" y="322" type="line"/>
      <point x="579" y="366" type="line"/>
      <point x="124" y="586" type="line"/>
      <point x="124" y="542" type="line"/>
      <point x="532" y="344" type="line"/>
      <point x="124" y="146" type="line"/>
      <point x="124" y="102" type="line"/>
    </contour>
  </outline>
</glyph>
<glyph name="hyphen.tf" format="2">
  <advance width="420"/>
  <outline>
    <contour>
      <point x="339" y="254" type="line"/>
      <point x="339" y="290" type="line"/>
      <point x="80" y="290" type="line"/>
      <point x="80" y="254" type="line"/>
    </contour>
  </outline>
</glyph>
<glyph name="multiply.tf" format="2">
  <advance width="700"/>
  <outline>
    <contour>
      <point x="525" y="484" type="line"/>
      <point x="499" y="509" type="line"/>
      <point x="175" y="185" type="line"/>
      <point x="200" y="159" type="line"/>
    </contour>
    <contour>
      <point x="524" y="185" type="line"/>
      <point x="200" y="509" type="line"/>
      <point x="174" y="484" type="line"/>
      <point x="499" y="159" type="line"/>
    </contour>
  </outline>
</glyph>
<glyph name="nine.tf" format="2">
  <advance width="700"/>
  <outline>
    <contour>
      <point x="339" y="699" type="curve" smooth="yes"/>
      <point x="219" y="699"/>
      <point x="118" y="596"/>
      <point x="118" y="473" type="curve" smooth="yes"/>
      <point x="118" y="356"/>
      <point x="215" y="258"/>
      <point x="330" y="258" type="curve" smooth="yes"/>
      <point x="449" y="258"/>
      <point x="549" y="336"/>
      <point x="549" y="429" type="curve"/>
      <point x="540" y="479" type="line"/>
      <point x="536" y="379"/>
      <point x="443" y="294"/>
      <point x="337" y="294" type="curve" smooth="yes"/>
      <point x="238" y="294"/>
      <point x="154" y="377"/>
      <point x="154" y="475" type="curve" smooth="yes"/>
      <point x="154" y="577"/>
      <point x="239" y="663"/>
      <point x="339" y="663" type="curve" smooth="yes"/>
      <point x="467" y="663"/>
      <point x="543" y="548"/>
      <point x="543" y="354" type="curve" smooth="yes"/>
      <point x="543" y="161"/>
      <point x="452" y="24"/>
      <point x="324" y="24" type="curve" smooth="yes"/>
      <point x="261" y="24"/>
      <point x="195" y="52"/>
      <point x="147" y="99" type="curve"/>
      <point x="127" y="70" type="line"/>
      <point x="181" y="18"/>
      <point x="253" y="-12"/>
      <point x="322" y="-12" type="curve" smooth="yes"/>
      <point x="472" y="-12"/>
      <point x="578" y="140"/>
      <point x="578" y="354" type="curve" smooth="yes"/>
      <point x="578" y="571"/>
      <point x="489" y="699"/>
    </contour>
  </outline>
</glyph>
<glyph name="one.tf" format="2">
  <advance width="700"/>
  <outline>
    <contour>
      <point x="443" y="0" type="line"/>
      <point x="443" y="687" type="line"/>
      <point x="414" y="687" type="line"/>
      <point x="232" y="572" type="line"/>
      <point x="251" y="542" type="line"/>
      <point x="407" y="640" type="line"/>
      <point x="407" y="0" type="line"/>
    </contour>
  </outline>
</glyph>
<glyph name="period.tf" format="2">
  <advance width="315"/>
  <outline>
    <contour>
      <point x="158" y="-12" type="curve" smooth="yes"/>
      <point x="174" y="-12"/>
      <point x="187" y="2"/>
      <point x="187" y="19" type="curve" smooth="yes"/>
      <point x="187" y="34"/>
      <point x="174" y="48"/>
      <point x="158" y="48" type="curve" smooth="yes"/>
      <point x="140" y="48"/>
      <point x="127" y="34"/>
      <point x="127" y="19" type="curve" smooth="yes"/>
      <point x="127" y="2"/>
      <point x="140" y="-12"/>
    </contour>
  </outline>
</glyph>
<glyph name="plus.tf" format="2">
  <advance width="700"/>
  <outline>
    <contour>
      <point x="579" y="316" type="line"/>
      <point x="579" y="352" type="line"/>
      <point x="120" y="352" type="line"/>
      <point x="120" y="316" type="line"/>
    </contour>
    <contour>
      <point x="368" y="105" type="line"/>
      <point x="368" y="564" type="line"/>
      <point x="332" y="564" type="line"/>
      <point x="332" y="105" type="line"/>
    </contour>
  </outline>
</glyph>
<glyph name="ringacute.case" format="2">
  <advance width="312"/>
  <anchor x="156" y="539" name="_top"/>
  <anchor x="156" y="800" name="top"/>
  <outline>
    <contour>
      <point x="156" y="589" type="curve" smooth="yes"/>
      <point x="212" y="589"/>
      <point x="259" y="622"/>
      <point x="259" y="661" type="curve" smooth="yes"/>
      <point x="259" y="701"/>
      <point x="212" y="734"/>
      <point x="156" y="734" type="curve" smooth="yes"/>
      <point x="100" y="734"/>
      <point x="53" y="701"/>
      <point x="53" y="661" type="curve" smooth="yes"/>
      <point x="53" y="622"/>
      <point x="100" y="589"/>
    </contour>
    <contour>
      <point x="156" y="613" type="curve" smooth="yes"/>
      <point x="119" y="613"/>
      <point x="87" y="636"/>
      <point x="87" y="661" type="curve" smooth="yes"/>
      <point x="87" y="687"/>
      <point x="119" y="710"/>
      <point x="156" y="710" type="curve" smooth="yes"/>
      <point x="193" y="710"/>
      <point x="225" y="687"/>
      <point x="225" y="661" type="curve" smooth="yes"/>
      <point x="225" y="636"/>
      <point x="193" y="613"/>
    </contour>
    <contour>
      <point x="178" y="711" type="line"/>
      <point x="296" y="804" type="line"/>
      <point x="255" y="811" type="line"/>
      <point x="130" y="711" type="line"/>
    </contour>
  </outline>
</glyph>
<glyph name="seven.tf" format="2">
  <advance width="700"/>
  <outline>
    <contour>
      <point x="268" y="0" type="line"/>
      <point x="577" y="658" type="line"/>
      <point x="577" y="687" type="line"/>
      <point x="122" y="687" type="line"/>
      <point x="122" y="651" type="line"/>
      <point x="534" y="651" type="line"/>
      <point x="228" y="0" type="line"/>
    </contour>
  </outline>
</glyph>
<glyph name="six.tf" format="2">
  <advance width="700"/>
  <outline>
    <contour>
      <point x="361" y="-12" type="curve" smooth="yes"/>
      <point x="481" y="-12"/>
      <point x="582" y="91"/>
      <point x="582" y="214" type="curve" smooth="yes"/>
      <point x="582" y="331"/>
      <point x="485" y="429"/>
      <point x="370" y="429" type="curve" smooth="yes"/>
      <point x="251" y="429"/>
      <point x="151" y="351"/>
      <point x="151" y="258" type="curve"/>
      <point x="160" y="208" type="line"/>
      <point x="164" y="308"/>
      <point x="257" y="393"/>
      <point x="363" y="393" type="curve" smooth="yes"/>
      <point x="462" y="393"/>
      <point x="546" y="310"/>
      <point x="546" y="212" type="curve" smooth="yes"/>
      <point x="546" y="110"/>
      <point x="461" y="24"/>
      <point x="361" y="24" type="curve" smooth="yes"/>
      <point x="233" y="24"/>
      <point x="157" y="139"/>
      <point x="157" y="333" type="curve" smooth="yes"/>
      <point x="157" y="526"/>
      <point x="248" y="663"/>
      <point x="376" y="663" type="curve" smooth="yes"/>
      <point x="439" y="663"/>
      <point x="505" y="635"/>
      <point x="553" y="588" type="curve"/>
      <point x="573" y="617" type="line"/>
      <point x="519" y="669"/>
      <point x="447" y="699"/>
      <point x="378" y="699" type="curve" smooth="yes"/>
      <point x="228" y="699"/>
      <point x="122" y="547"/>
      <point x="122" y="333" type="curve" smooth="yes"/>
      <point x="122" y="116"/>
      <point x="211" y="-12"/>
    </contour>
  </outline>
</glyph>
<glyph name="sterling.tf" format="2">
  <advance width="700"/>
  <outline>
    <contour>
      <point x="584" y="0" type="line"/>
      <point x="584" y="36" type="line"/>
      <point x="187" y="36" type="line"/>
      <point x="198" y="24" type="line"/>
      <point x="198" y="463" type="line" smooth="yes"/>
      <point x="198" y="580"/>
      <point x="268" y="663"/>
      <point x="368" y="663" type="curve" smooth="yes"/>
      <point x="449" y="663"/>
      <point x="516" y="624"/>
      <point x="547" y="557" type="curve"/>
      <point x="572" y="579" type="line"/>
      <point x="536" y="654"/>
      <point x="461" y="699"/>
      <point x="368" y="699" type="curve" smooth="yes"/>
      <point x="247" y="699"/>
      <point x="162" y="601"/>
      <point x="162" y="463" type="curve" smooth="yes"/>
      <point x="162" y="36" type="line"/>
      <point x="116" y="18" type="line"/>
      <point x="116" y="0" type="line"/>
    </contour>
    <contour>
      <point x="411" y="277" type="line"/>
      <point x="411" y="313" type="line"/>
      <point x="116" y="313" type="line"/>
      <point x="116" y="277" type="line"/>
    </contour>
  </outline>
</glyph>
<glyph name="three.tf" format="2">
  <advance width="700"/>
  <outline>
    <contour>
      <point x="356" y="-12" type="curve" smooth="yes"/>
      <point x="474" y="-12"/>
      <point x="574" y="79"/>
      <point x="574" y="187" type="curve" smooth="yes"/>
      <point x="574" y="272"/>
      <point x="527" y="334"/>
      <point x="447" y="352" type="curve"/>
      <point x="517" y="373"/>
      <point x="559" y="432"/>
      <point x="559" y="511" type="curve" smooth="yes"/>
      <point x="559" y="613"/>
      <point x="465" y="699"/>
      <point x="353" y="699" type="curve" smooth="yes"/>
      <point x="268" y="699"/>
      <point x="195" y="656"/>
      <point x="129" y="568" type="curve"/>
      <point x="156" y="544" type="line"/>
      <point x="212" y="624"/>
      <point x="276" y="663"/>
      <point x="349" y="663" type="curve" smooth="yes"/>
      <point x="443" y="663"/>
      <point x="523" y="592"/>
      <point x="523" y="507" type="curve" smooth="yes"/>
      <point x="523" y="418"/>
      <point x="455" y="366"/>
      <point x="340" y="366" type="curve" smooth="yes"/>
      <point x="277" y="366" type="line"/>
      <point x="277" y="330" type="line"/>
      <point x="339" y="330" type="line" smooth="yes"/>
      <point x="464" y="330"/>
      <point x="538" y="278"/>
      <point x="538" y="189" type="curve" smooth="yes"/>
      <point x="538" y="99"/>
      <point x="455" y="24"/>
      <point x="356" y="24" type="curve" smooth="yes"/>
      <point x="269" y="24"/>
      <point x="200" y="64"/>
      <point x="147" y="145" type="curve"/>
      <point x="121" y="120" type="line"/>
      <point x="188" y="31"/>
      <point x="265" y="-12"/>
    </contour>
  </outline>
</glyph>
<glyph name="two.tf" format="2">
  <advance width="700"/>
  <outline>
    <contour>
      <point x="582" y="0" type="line"/>
      <point x="582" y="36" type="line"/>
      <point x="168" y="36" type="line"/>
      <point x="408" y="241" type="line" smooth="yes"/>
      <point x="512" y="330"/>
      <point x="564" y="414"/>
      <point x="564" y="498" type="curve" smooth="yes"/>
      <point x="564" y="603"/>
      <point x="482" y="699"/>
      <point x="357" y="699" type="curve" smooth="yes"/>
      <point x="275" y="699"/>
      <point x="186" y="658"/>
      <point x="124" y="567" type="curve"/>
      <point x="152" y="545" type="line"/>
      <point x="208" y="624"/>
      <point x="285" y="665"/>
      <point x="359" y="665" type="curve" smooth="yes"/>
      <point x="464" y="665"/>
      <point x="528" y="581"/>
      <point x="528" y="497" type="curve" smooth="yes"/>
      <point x="528" y="429"/>
      <point x="485" y="354"/>
      <point x="385" y="268" type="curve" smooth="yes"/>
      <point x="118" y="39" type="line"/>
      <point x="118" y="0" type="line"/>
    </contour>
  </outline>
</glyph>
<glyph name="yen.tf" format="2">
  <advance width="700"/>
  <anchor x="350" y="687" name="top"/>
  <outline>
    <contour>
      <point x="578" y="131" type="line"/>
      <point x="578" y="167" type="line"/>
      <point x="122" y="167" type="line"/>
      <point x="122" y="131" type="line"/>
    </contour>
    <contour>
      <point x="578" y="278" type="line"/>
      <point x="578" y="314" type="line"/>
      <point x="122" y="314" type="line"/>
      <point x="122" y="278" type="line"/>
    </contour>
    <contour>
      <point x="368" y="0" type="line"/>
      <point x="368" y="279" type="line"/>
      <point x="648" y="687" type="line"/>
      <point x="602" y="687" type="line"/>
      <point x="350" y="320" type="line"/>
      <point x="98" y="687" type="line"/>
      <point x="52" y="687" type="line"/>
      <point x="332" y="279" type="line"/>
      <point x="332" y="0" type="line"/>
    </contour>
  </outline>
</glyph>
<glyph name="zero.tf" format="2">
  <advance width="700"/>
  <outline>
    <contour>
      <point x="350" y="-12" type="curve" smooth="yes"/>
      <point x="505" y="-12"/>
      <point x="614" y="135"/>
      <point x="614" y="344" type="curve" smooth="yes"/>
      <point x="614" y="552"/>
      <point x="505" y="699"/>
      <point x="350" y="699" type="curve" smooth="yes"/>
      <point x="195" y="699"/>
      <point x="86" y="552"/>
      <point x="86" y="344" type="curve" smooth="yes"/>
      <point x="86" y="135"/>
      <point x="195" y="-12"/>
    </contour>
    <contour>
      <point x="350" y="24" type="curve" smooth="yes"/>
      <point x="216" y="24"/>
      <point x="122" y="157"/>
      <point x="122" y="344" type="curve" smooth="yes"/>
      <point x="122" y="531"/>
      <point x="216" y="663"/>
      <point x="350" y="663" type="curve" smooth="yes"/>
      <point x="484" y="663"/>
      <point x="578" y="531"/>
      <point x="578" y="344" type="curve" smooth="yes"/>
      <point x="578" y="157"/>
      <point x="484" y="24"/>
    </contour>
  </outline>
</glyph>
